<?xml version="1.0" encoding="UTF-8"?>
<!DOCTYPE svg PUBLIC "-//W3C//DTD SVG 1.1//EN" "http://www.w3.org/Graphics/SVG/1.1/DTD/svg11.dtd">
<!-- Creator: CorelDRAW -->
<svg xmlns="http://www.w3.org/2000/svg" xml:space="preserve" width="169.333mm" height="169.333mm" version="1.1" style="shape-rendering:geometricPrecision; text-rendering:geometricPrecision; image-rendering:optimizeQuality; fill-rule:evenodd; clip-rule:evenodd"
viewBox="0 0 16933.32 16933.32"
 xmlns:xlink="http://www.w3.org/1999/xlink"
 xmlns:xodm="http://www.corel.com/coreldraw/odm/2003">
 <defs>
  <style type="text/css">
   <![CDATA[
    .str1 {stroke:#21AD69;stroke-width:26.46;stroke-miterlimit:22.9256}
    .str2 {stroke:#21AD69;stroke-width:24.29;stroke-miterlimit:22.9256}
    .str3 {stroke:#21AD69;stroke-width:22.13;stroke-miterlimit:22.9256}
    .str0 {stroke:#21AD69;stroke-width:52.92;stroke-miterlimit:22.9256}
    .str4 {stroke:#21AD69;stroke-width:19.97;stroke-miterlimit:22.9256}
    .str5 {stroke:#21AD69;stroke-width:17.81;stroke-miterlimit:22.9256}
    .fil1 {fill:none;fill-rule:nonzero}
    .fil0 {fill:#004222}
    .fil2 {fill:#DBF868}
   ]]>
  </style>
   <clipPath id="id0">
    <path d="M8466.66 1095.35l3862.47 2806.25 3862.48 2806.25 -1475.34 4540.61 -1475.33 4540.61 -4774.28 0 -4774.28 0 -1475.33 -4540.61 -1475.34 -4540.61 3862.48 -2806.25 3862.47 -2806.25z"/>
   </clipPath>
 </defs>
 <g id="Camada_x0020_1">
  <metadata id="CorelCorpID_0Corel-Layer"/>
  <polygon class="fil0" points="8466.66,1095.35 12329.13,3901.6 16191.61,6707.85 14716.27,11248.46 13240.94,15789.07 8466.66,15789.07 3692.38,15789.07 2217.05,11248.46 741.71,6707.85 4604.19,3901.6 "/>
  <g style="clip-path:url(#id0)">
   <g id="_1920741031312">
    <g>
     <path id="_1" class="fil1 str0" d="M10252.67 826.38c-730.15,588.83 -1374.91,1280.71 -1919.58,2046.18 -214.93,303.25 -406.3,736.04 -161.93,1012.79 67.71,73.61 156.04,123.66 232.59,188.43 415.12,347.41 335.63,998.07 182.53,1519.18 -47.1,158.99 -100.1,323.85 -223.75,438.68 -185.49,170.76 -462.24,167.81 -706.6,223.75 -532.9,120.71 -953.91,541.72 -1477.97,700.71 -188.42,55.94 -388.63,79.5 -568.22,156.04 -485.79,206.1 -733.1,741.93 -903.86,1242.44 -117.76,347.41 -220.81,724.26 -108.94,1071.67 73.61,229.65 235.54,421.01 394.52,606.49 426.91,497.57 865.59,1006.91 1442.64,1310.15 435.73,229.65 977.46,326.81 1416.14,105.99 76.55,-38.28 153.09,-91.26 197.26,-164.87 105.99,-173.7 8.83,-394.52 -58.89,-588.84 -117.76,-344.46 -117.76,-762.53 120.71,-1039.29 291.48,-338.57 797.87,-350.35 1245.38,-365.07 359.19,-11.77 727.21,-47.1 1045.18,-217.86 315.02,-170.77 565.28,-506.39 532.89,-865.59 -47.1,-521.11 -656.54,-965.68 -465.17,-1454.41 50.05,-132.49 156.04,-235.54 273.8,-315.02 235.54,-156.04 518.18,-214.93 797.87,-247.31 447.51,-50.05 900.92,-29.44 1348.42,-88.33 447.52,-58.89 900.92,-203.15 1215.94,-524.06 694.82,-709.55 444.56,-1928.42 948.02,-2785.18 200.2,-338.57 503.45,-600.6 747.81,-909.74 244.36,-309.13 429.85,-709.54 326.81,-1086.39"/>
     <path class="fil1 str1" d="M6778.57 8174.99c-38.28,55.94 -67.71,120.71 -64.77,188.42 2.95,67.71 41.21,135.43 105.99,158.99 100.1,32.38 191.37,-53 273.8,-117.76 185.49,-147.21 397.46,-105.99 591.77,-206.09 132.49,-70.66 100.11,-170.77 0,-256.15 -285.57,-244.37 -727.19,-35.33 -906.79,232.59z"/>
     <path class="fil1 str1" d="M8215.32 7762.8c-156.04,-123.66 -353.3,-209.03 -541.72,-232.58 -61.82,-8.84 -123.66,-5.89 -182.53,5.88 -132.49,23.56 -256.15,88.33 -379.8,161.93 -132.48,79.5 -267.91,135.43 -397.46,211.98 -123.66,70.66 -226.7,158.99 -297.36,282.64 -76.55,135.43 -88.33,291.47 -47.1,432.79 2.94,14.72 8.83,29.45 14.72,44.17 55.93,153.09 173.7,297.36 315.02,373.9 173.7,94.22 391.57,38.28 479.89,-158.99 41.22,-94.21 67.71,-188.42 138.37,-264.98 94.22,-103.04 235.54,-117.76 365.08,-132.48 126.59,-17.67 259.08,-29.44 379.79,-79.49 105.99,-44.17 185.48,-123.66 244.36,-214.93 100.11,-150.14 58.9,-312.06 -91.26,-429.84z"/>
     <path class="fil1 str1" d="M8751.16 7586.15c-226.7,-173.7 -527,-315.02 -806.7,-359.18 -97.16,-14.72 -185.49,-11.77 -270.87,5.89 -200.21,38.27 -376.86,147.2 -556.44,262.03 -194.32,126.59 -400.4,197.25 -603.56,300.31 -191.37,97.15 -350.35,217.86 -450.45,409.23 -117.76,220.82 -117.76,474.01 -29.45,700.71 8.84,23.56 20.61,47.11 29.45,70.66 108.94,235.54 306.19,453.41 527,591.78 247.31,156.04 591.77,132.48 683.04,-197.26 44.16,-158.99 55.94,-323.86 153.09,-459.29 132.48,-185.48 359.19,-197.26 565.28,-220.81 200.2,-20.61 409.24,-38.28 594.72,-123.66 164.88,-76.55 282.64,-211.98 347.41,-376.86 82.45,-214.92 11.8,-453.39 -182.52,-603.55z"/>
     <path class="fil1 str1" d="M9284.05 7406.57c-300.31,-226.7 -700.71,-423.96 -1071.66,-485.79 -129.55,-20.6 -247.31,-17.67 -362.14,5.89 -264.98,53 -494.62,206.09 -733.09,362.13 -259.08,170.77 -532.9,256.15 -809.64,388.63 -256.14,123.66 -474.01,279.69 -606.49,538.79 -156.04,306.19 -144.27,656.54 -11.78,965.68 14.73,32.38 29.45,64.77 44.17,97.15 161.93,320.92 441.63,612.38 736.04,809.64 323.85,214.93 794.93,226.7 889.13,-235.54 47.11,-220.81 44.17,-459.29 170.77,-656.54 170.76,-264.98 482.84,-276.76 765.48,-306.2 273.8,-26.49 556.44,-47.1 809.64,-167.81 223.75,-108.94 388.63,-297.36 450.45,-538.79 76.53,-279.69 -29.46,-594.71 -270.88,-777.24z"/>
     <path class="fil1 str1" d="M8029.84 6620.47c-329.74,67.72 -615.33,262.04 -912.69,465.18 -320.92,217.87 -665.38,317.97 -1015.73,476.96 -323.86,147.2 -594.72,338.58 -759.6,665.38 -197.26,394.51 -170.76,839.08 5.89,1233.6 206.09,456.34 597.65,865.58 1006.9,1148.22 400.4,276.76 995.13,320.92 1095.23,-273.8 47.1,-285.59 32.38,-594.72 188.42,-850.87 209.03,-347.41 606.5,-359.18 965.68,-391.57 347.41,-32.39 706.6,-55.94 1024.57,-214.93 282.64,-141.32 497.56,-385.68 556.44,-700.71 61.82,-347.42 -79.5,-738.98 -365.07,-950.96 -373.91,-279.69 -874.41,-529.95 -1336.65,-612.38 -164.87,-29.45 -312.07,-23.56 -453.39,5.88z"/>
     <path class="fil1 str1" d="M11256.63 773.38c-662.43,571.17 -1451.46,1086.4 -1896.03,1863.65 -235.54,409.24 -203.14,806.71 -164.88,1254.22 44.17,538.78 -26.49,1048.12 -67.71,1583.96 -14.72,179.6 14.72,379.79 144.27,503.45 323.86,312.08 871.48,88.33 1221.83,-38.28 724.26,-262.03 1475.01,-235.53 2208.12,-429.84 532.89,-144.27 959.79,-509.34 1230.66,-986.29 306.17,-544.68 421,-1189.45 641.81,-1775.34 223.75,-591.77 836.14,-1136.44 862.64,-1784.16"/>
     <path class="fil1 str1" d="M11165.36 1294.5c-429.84,347.41 -786.09,780.21 -1039.29,1268.93 -100.1,191.37 -185.48,391.57 -220.81,603.55 -64.77,382.74 35.33,780.21 -35.33,1160 -32.38,161.93 -94.22,320.92 -108.94,485.78 -17.67,164.88 23.56,350.35 156.04,450.46 82.43,61.82 191.37,82.43 297.36,79.49 303.25,-5.88 574.12,-167.81 856.75,-273.8 624.17,-235.54 1374.92,-220.82 1860.72,-683.04 217.86,-206.09 350.35,-485.78 462.23,-762.54 376.86,-936.24 585.89,-1957.86 1154.12,-2794.01"/>
     <path class="fil1 str1" d="M11813.08 1185.56c-191.37,173.7 -368.02,362.13 -532.89,559.39 -79.5,94.22 -158.99,226.7 -97.16,332.69 41.22,70.66 129.55,97.16 209.03,117.77 235.54,61.82 474.01,123.66 709.55,185.48 203.14,53 412.18,105.99 618.28,76.55 264.98,-41.22 494.62,-217.87 650.66,-435.74 158.99,-217.86 256.14,-471.06 347.41,-721.31 17.67,-50.06 26.49,-120.72 -23.56,-138.38"/>
     <path class="fil1 str1" d="M10461.71 3343.63c-11.77,167.82 47.11,332.69 70.66,500.51 26.5,188.42 5.89,382.74 -58.88,562.33 -41.22,108.93 -97.16,232.58 -47.11,338.57 58.89,129.55 244.36,147.21 370.97,88.33 129.55,-58.88 226.7,-170.76 341.53,-250.25 332.69,-226.71 786.09,-170.77 1154.11,-332.7 624.17,-270.86 674.22,-980.4 182.54,-1407.3 -320.92,-279.69 -1003.96,-250.26 -1383.75,-150.16 -300.33,76.56 -606.51,315.03 -630.07,650.67z"/>
     <path class="fil1 str1" d="M11127.09 3517.33c11.78,55.94 41.22,105.99 47.11,164.88 5.88,58.89 -17.67,123.66 2.95,176.65 26.49,64.77 105.99,94.21 176.64,88.33 70.66,-5.89 135.44,-41.22 200.21,-64.77 185.49,-67.72 388.63,-91.27 468.12,-297.37 55.94,-147.2 26.5,-347.41 -105.98,-447.51 -253.21,-191.37 -871.49,5.89 -789.05,379.79z"/>
     <path class="fil1 str1" d="M12107.5 1259.17c-91.27,41.22 -158.99,126.6 -197.26,220.81 -38.28,94.22 -53,194.32 -61.83,294.42 -2.95,41.21 -8.83,82.43 8.84,120.71 14.72,32.38 41.21,55.94 70.66,76.54 267.92,200.21 659.49,209.03 948.02,38.28 288.52,-170.76 468.12,-503.45 476.96,-839.08"/>
     <path class="fil1 str0" d="M23657.41 6114.08c-1024.56,606.5 -2287.6,836.15 -3432.88,512.29 -459.29,-129.54 -933.3,-344.46 -1389.64,-211.98 -323.85,94.22 -577.05,350.35 -900.91,444.57 -232.59,67.71 -482.85,47.1 -727.21,58.89 -497.57,20.6 -1001.01,191.37 -1345.48,550.55 -344.47,356.25 -494.62,918.58 -294.42,1371.98 76.55,170.76 194.32,317.97 264.98,488.73 235.54,559.39 -47.1,1301.32 356.25,1754.72 114.83,129.55 276.75,214.93 388.63,344.47 203.14,235.53 223.75,571.16 235.54,880.3 8.83,256.14 2.94,547.61 -185.49,721.31 -229.65,209.04 -588.83,126.6 -886.19,38.28 -830.26,-247.31 -1678.18,-438.68 -2537.87,-547.62 -535.83,-67.71 -1192.38,-47.1 -1466.19,418.08 -262.03,450.45 -32.39,1133.5 -435.74,1463.24 -144.26,117.77 -335.63,153.1 -518.17,173.7 -1162.94,117.77 -2299.39,-344.46 -3465.28,-438.68 -544.67,-44.16 -1198.26,53 -1442.64,541.72 -170.76,338.58 -82.43,738.98 -35.33,1115.84 47.11,373.91 11.78,821.42 -300.3,1033.4"/>
     <path class="fil1 str0" d="M-81.31 11601.99c303.25,194.32 697.76,241.42 1039.29,123.66 341.52,-117.77 621.21,-400.4 736.04,-741.93 132.48,-388.63 55.94,-815.54 82.43,-1224.77 44.17,-771.37 441.63,-1469.14 771.37,-2169.85 329.74,-697.76 603.56,-1489.74 391.58,-2231.67 -223.75,-786.09 -936.25,-1330.76 -1666.39,-1701.72 -521.11,-264.98 -1104.06,-500.5 -1416.15,-995.12"/>
     <path class="fil1 str0" d="M18381.49 1303.32c-105.99,468.13 -406.3,868.53 -580,1316.04 -173.7,447.52 -179.6,1033.41 200.21,1330.77 226.7,176.65 535.83,203.14 824.36,206.09 594.72,5.89 1189.44,-61.83 1766.49,-203.15 850.87,-203.14 1728.22,-562.32 2567.31,-317.96"/>
     <path class="fil1 str1" d="M20957.63 7315.3c-685.99,-158.99 -1419.08,-535.84 -2052.08,-226.7 -138.37,67.71 -262.03,164.87 -400.4,235.53 -297.36,150.16 -644.77,161.93 -974.51,214.93 -468.13,76.55 -965.68,291.48 -1148.23,730.16 -111.88,270.86 -82.43,574.11 -47.1,862.64 38.28,303.24 85.38,603.55 141.32,903.85 50.05,273.8 108.93,553.51 250.25,794.93 194.32,329.74 524.07,556.44 862.64,730.15 1295.44,671.27 2932.38,733.09 4195.42,0 824.36,-476.96 1442.64,-1307.2 1678.18,-2231.67 158.99,-630.05 291.47,-2084.46 -659.5,-2069.74 -641.83,14.69 -1195.34,206.06 -1845.99,55.92z"/>
     <path class="fil1 str1" d="M22353.16 7706.87c-503.46,5.88 -956.86,150.15 -1486.81,41.21 -553.5,-114.82 -1145.27,-391.58 -1657.55,-150.15 -111.88,53 -214.93,129.54 -326.8,185.48 -241.43,117.76 -521.12,132.49 -783.15,182.54 -376.85,70.66 -774.31,250.26 -924.46,597.66 -94.22,214.92 -76.55,459.29 -50.05,694.82 29.44,247.31 70.66,491.67 123.66,733.09 47.1,220.82 105.99,441.63 226.7,632.99 164.87,259.08 432.79,432.8 706.6,571.17 203.14,100.1 418.07,182.53 638.88,247.31 912.69,264.98 1928.42,209.03 2752.78,-259.09 674.22,-382.74 1183.56,-1068.73 1369.03,-1816.54 129.54,-529.94 203.15,-1666.38 -588.83,-1660.49z"/>
     <path class="fil1 str1" d="M21905.64 8145.55c-370.97,0 -721.32,100.1 -1133.5,32.38 -421.01,-70.66 -868.53,-247.31 -1263.04,-70.66 -88.33,38.28 -164.88,91.27 -250.26,132.48 -188.42,88.33 -397.46,105.99 -591.77,150.16 -288.53,64.77 -582.95,206.09 -700.71,465.17 -73.61,161.93 -70.66,344.46 -53,524.06 20.6,191.37 55.93,379.8 108.93,562.33 47.11,167.82 103.05,329.74 203.15,471.06 135.43,185.49 338.58,312.09 550.55,409.24 156.05,70.66 320.92,129.55 488.74,173.7 697.76,185.48 1466.19,147.21 2096.23,-200.21 524.06,-288.52 927.41,-827.3 1062.85,-1401.42 100.11,-420.99 114.83,-1248.29 -518.17,-1248.29z"/>
     <path class="fil1 str1" d="M21461.08 8587.17c-235.54,-2.94 -488.74,50.06 -777.26,23.56 -285.59,-26.49 -594.72,-103.04 -868.53,5.89 -61.82,23.56 -117.76,55.94 -176.65,82.43 -132.48,55.94 -270.86,79.5 -403.35,117.76 -197.25,58.89 -388.62,164.88 -476.95,332.69 -55.94,108.94 -64.78,232.59 -55.94,356.25 8.83,135.43 41.21,267.92 91.27,391.58 44.16,111.87 100.1,217.86 182.53,306.19 105.99,114.83 247.31,191.38 397.47,250.26 108.93,41.22 223.75,76.55 338.57,103.04 479.9,105.99 1003.96,85.38 1439.69,-138.37 376.86,-191.37 668.32,-588.83 753.7,-989.23 67.74,-323.88 29.46,-836.16 -444.55,-842.05z"/>
     <path class="fil1 str1" d="M19488.49 9626.46c0,150.16 103.04,285.59 232.59,362.14 129.54,76.54 282.64,103.04 432.79,117.76 264.98,26.49 541.72,26.49 786.09,-79.5 438.68,-188.42 721.32,-959.79 73.61,-1001.01 -385.69,-23.55 -1522.13,88.32 -1525.08,600.61z"/>
     <path class="fil1 str1" d="M11209.53 16621.78c368.02,-267.92 568.22,-715.44 653.6,-1162.94 85.39,-447.51 73.61,-906.8 111.88,-1360.21 26.5,-297.36 82.43,-612.38 288.53,-830.25 317.97,-332.69 803.75,-326.81 1224.77,-247.31 630.05,120.71 1236.54,362.13 1781.21,700.71 217.87,132.48 438.68,267.92 685.99,326.8 294.42,70.66 603.56,-11.77 836.15,-200.2 197.26,-161.93 300.31,-397.47 456.34,-591.78 164.87,-200.2 382.74,-326.8 638.88,-370.96 683.04,-114.83 1301.32,300.3 1975.53,288.52 582.95,-11.77 1074.62,-338.58 1639.89,-435.73 591.78,-100.1 1124.67,103.04 1469.14,603.56 288.52,418.07 385.68,927.41 527,1407.3 129.54,441.63 368.02,827.31 665.38,1174.73 320.91,376.85 630.05,759.59 1006.9,1089.34"/>
     <path class="fil1 str1" d="M11886.68 16356.8c267.92,-235.54 403.35,-588.84 485.78,-936.25 82.44,-347.41 126.6,-706.6 262.03,-1039.29 135.44,-329.74 382.75,-641.82 730.16,-733.09 317.97,-85.38 656.54,23.56 942.13,185.49 285.59,161.92 541.72,373.9 836.15,518.17 285.58,141.32 600.6,214.93 871.47,379.79 368.02,220.82 635.94,600.61 718.37,1018.68 85.38,421.01 -17.67,874.42 -270.87,1218.89"/>
     <path class="fil1 str1" d="M12546.18 16297.91c120.71,-347.41 241.42,-697.76 359.18,-1045.17 88.33,-253.2 188.42,-527 409.24,-680.11 203.14,-141.32 474.01,-153.09 712.48,-91.26 238.48,61.82 453.4,194.32 665.38,320.91 253.2,153.1 503.46,306.2 756.65,462.24 117.76,70.66 235.54,144.27 323.86,247.31 232.58,270.87 179.59,738.98 -108.94,953.91"/>
     <path class="fil1 str1" d="M13464.75 16383.29c14.72,-253.19 35.33,-524.06 191.37,-727.2 214.93,-279.69 635.94,-335.64 962.74,-200.21 117.77,50.05 229.65,123.66 294.42,232.59 70.66,117.76 76.54,262.03 76.54,397.46 0,264.98 -23.55,527 -61.82,789.03"/>
     <path class="fil1 str1" d="M18172.46 3007.99c0,209.03 76.55,426.91 241.42,553.51 105.99,79.49 235.54,117.76 365.07,141.32 1098.18,214.93 2196.34,-279.69 3297.46,-479.9 276.75,-50.05 571.16,-88.33 794.92,-259.08 320.92,-241.42 409.24,-685.99 412.19,-1086.39 2.95,-244.36 -20.61,-497.57 -141.32,-706.6 -103.04,-179.6 -267.92,-315.02 -447.52,-421.01 -403.35,-238.5 -877.36,-335.65 -1348.42,-376.87 -529.95,-47.1 -1065.78,-26.49 -1589.84,61.83 -326.81,55.94 -738.98,105.99 -948.02,397.46 -158.99,220.82 -182.54,535.84 -253.2,791.98 -123.66,447.52 -385.69,909.74 -382.74,1383.75z"/>
     <path class="fil1 str1" d="M22382.6 885.26c-309.13,-185.48 -674.21,-267.91 -1033.4,-300.31 -23.56,-2.95 -50.05,-2.95 -73.61,-5.88 -432.79,-32.38 -871.47,-8.84 -1301.32,67.71 -267.91,47.1 -603.55,94.21 -777.25,332.69 -132.49,182.53 -153.1,435.73 -214.93,644.77 -76.55,262.03 -209.03,532.9 -279.69,806.7 -26.5,108.94 -44.17,220.82 -44.17,332.69 2.95,170.77 64.78,350.35 200.21,456.34 85.38,64.78 191.37,94.22 297.36,117.76 185.48,35.33 370.97,47.11 553.5,41.22 712.49,-23.56 1424.97,-303.25 2137.47,-441.63 226.7,-44.16 465.17,-76.54 647.71,-214.93 262.03,-197.25 332.69,-556.44 344.46,-883.24 5.89,-188.43 0,-382.75 -76.54,-553.51 -5.89,-14.72 -11.78,-26.49 -20.61,-41.21 -76.55,-150.14 -211.98,-267.9 -359.19,-359.17z"/>
     <path class="fil1 str1" d="M22067.57 1020.68c-241.42,-150.15 -527,-209.03 -809.64,-229.65 -17.67,0 -38.28,-2.94 -55.94,-2.94 -335.64,-20.61 -677.15,5.88 -1009.84,73.6 -209.03,41.22 -468.12,82.44 -603.56,267.92 -105.99,141.32 -126.59,338.58 -176.65,500.51 -64.77,206.09 -173.7,415.12 -226.7,632.99 -20.61,88.33 -35.33,173.7 -32.38,262.03 2.95,135.43 53,276.75 158.99,359.18 67.71,50.05 150.16,73.61 229.65,91.27 144.27,29.44 288.53,38.28 429.85,32.38 553.5,-17.67 1107,-235.54 1657.55,-350.35 173.7,-35.33 359.19,-64.77 500.51,-173.7 203.14,-156.04 259.08,-429.85 276.75,-683.04 11.77,-150.16 14.72,-306.2 -38.28,-444.57 -2.95,-11.77 -8.84,-23.55 -14.72,-32.38 -61.83,-126.6 -164.88,-229.64 -285.59,-303.25z"/>
     <path class="fil1 str1" d="M21752.55 1156.12c-170.76,-111.88 -382.74,-150.16 -582.95,-158.99 -14.72,0 -26.49,0 -41.21,0 -238.48,-5.89 -482.85,20.61 -721.32,79.49 -150.16,35.33 -332.69,70.66 -432.8,203.15 -79.49,103.04 -100.1,241.42 -141.32,353.3 -53,147.2 -135.43,300.3 -173.7,459.28 -14.72,64.78 -26.49,129.55 -23.55,191.37 2.94,100.11 38.27,200.21 117.76,262.04 47.1,35.33 105.99,53 164.87,64.77 103.05,20.61 203.15,29.44 306.2,23.56 397.46,-11.78 789.03,-167.82 1177.66,-262.04 123.66,-29.44 250.26,-53 353.3,-132.48 144.27,-111.88 185.48,-303.25 209.03,-479.9 14.72,-111.87 29.44,-229.65 -2.95,-338.57 -2.95,-8.84 -5.89,-17.67 -8.84,-26.5 -35.3,-94.21 -108.91,-179.6 -200.18,-238.48z"/>
     <path class="fil1 str1" d="M21440.47 1291.55c-103.04,-73.61 -235.54,-94.22 -359.19,-88.33 -8.83,0 -17.67,0 -23.55,0 -141.32,5.89 -288.53,38.28 -432.8,85.38 -91.27,29.45 -197.26,61.83 -259.08,138.37 -50.05,61.83 -73.61,141.32 -103.04,209.03 -41.22,91.27 -97.15,182.54 -123.66,282.64 -8.84,41.22 -14.72,82.43 -14.72,123.66 2.95,61.83 26.49,126.6 76.54,164.88 29.45,20.61 61.83,32.38 97.16,41.21 58.88,14.73 120.71,17.68 182.53,14.73 238.48,-5.89 468.13,-103.04 694.83,-170.77 70.66,-20.6 144.27,-41.21 203.14,-88.33 85.38,-67.71 114.83,-176.65 141.32,-276.75 20.61,-76.55 47.1,-153.09 35.33,-232.59 0,-5.88 -2.95,-11.77 -2.95,-17.67 -11.76,-73.58 -50.04,-141.29 -111.86,-185.46z"/>
     <path class="fil1 str1" d="M20686.77 1638.96c-29.45,32.38 -58.89,67.71 -70.66,108.94 -11.77,41.23 -2.95,91.27 32.38,120.71 23.56,17.67 58.89,23.56 88.33,23.56 138.37,-2.95 256.14,-97.15 344.46,-203.14 32.38,-38.28 61.83,-76.55 73.61,-123.66 11.77,-47.11 5.89,-103.05 -32.38,-135.44 -35.33,-32.38 -88.33,-35.33 -132.48,-17.67 -94.23,32.38 -232.6,153.09 -303.26,226.7z"/>
     <path class="fil1 str1" d="M8444.96 10126.97c-120.71,279.69 23.56,594.72 41.22,897.97 20.61,365.07 -158.99,738.97 -459.29,948.02 -267.92,185.48 -600.61,244.36 -900.92,365.07 -300.31,123.66 -600.61,362.13 -615.33,688.94 -11.77,229.65 129.55,447.51 317.97,585.88 185.49,135.44 412.19,206.09 635.94,264.98 880.3,232.59 1792.99,338.58 2702.74,317.97 111.88,-2.95 226.7,-5.89 332.69,-41.22 347.41,-108.93 535.83,-482.84 635.94,-830.25 103.04,-350.35 170.76,-730.16 418.07,-995.13 188.42,-200.2 462.24,-315.02 612.38,-544.67 94.22,-144.26 129.55,-317.97 132.49,-488.73 8.83,-418.07 -164.88,-839.08 -471.07,-1127.61 -450.45,-423.95 -1042.23,-479.89 -1625.17,-459.28 -497.56,14.71 -1501.51,-173.73 -1757.66,418.06z"/>
     <path class="fil1 str1" d="M11409.73 10497.93c-359.18,-317.97 -827.31,-368.02 -1286.59,-350.35 -400.41,17.67 -1174.73,-108.94 -1366.1,365.07 -88.33,220.81 23.56,468.12 41.22,706.59 5.89,67.72 0,135.44 -8.84,203.15 -38.27,217.86 -158.99,421.01 -335.63,550.55 -206.1,150.16 -465.18,203.15 -700.72,303.25 -203.14,85.38 -406.29,229.65 -479.89,429.85 -14.72,44.16 -26.5,88.33 -26.5,135.43 -8.83,188.42 108.94,368.02 259.09,479.9 144.26,105.99 317.96,161.92 491.66,206.09 680.11,182.54 1386.71,270.87 2090.35,244.36 91.27,-2.95 182.54,-8.84 267.92,-38.28 276.75,-91.27 432.79,-388.63 515.23,-671.27 61.82,-206.09 103.04,-426.9 200.2,-615.33 35.33,-67.71 76.55,-129.54 126.6,-185.48 147.21,-161.93 362.14,-259.08 482.85,-444.57 76.54,-117.76 108.94,-259.08 114.82,-400.4 17.68,-344.45 -123.64,-688.91 -385.67,-918.56z"/>
     <path class="fil1 str1" d="M10994.6 10827.68c-267.92,-209.03 -609.44,-256.15 -950.96,-238.48 -303.25,14.73 -847.92,-50.05 -974.51,309.14 -55.94,164.87 26.49,341.52 44.16,515.22 5.89,50.06 2.95,100.11 -2.95,147.21 -23.55,158.99 -105.99,309.13 -229.65,409.24 -144.27,114.82 -329.74,161.92 -500.5,241.42 -156.04,70.66 -317.97,179.6 -376.86,335.64 -11.77,32.38 -20.61,67.71 -20.61,105.99 -5.88,147.2 85.39,288.52 203.15,376.85 100.1,76.55 223.75,114.83 344.46,150.16 476.96,135.43 980.4,200.21 1475.02,170.76 67.71,-2.95 135.43,-11.77 200.21,-35.33 209.03,-76.54 329.74,-297.36 391.57,-509.34 47.11,-156.04 76.55,-320.92 147.21,-465.17 26.5,-50.05 55.94,-100.11 91.27,-141.32 105.99,-126.6 262.03,-206.09 353.3,-344.47 61.82,-91.26 91.27,-203.14 100.1,-312.08 29.46,-273.82 -73.6,-541.74 -294.41,-715.44z"/>
     <path class="fil1 str1" d="M10579.48 11160.36c-170.77,-108.94 -394.52,-144.27 -612.39,-129.55 -206.09,14.72 -524.06,8.84 -582.94,253.2 -26.5,105.99 26.49,214.92 44.16,326.8 5.89,32.38 5.89,61.83 2.95,94.22 -5.89,103.04 -53,200.2 -123.66,270.86 -82.43,82.44 -194.32,123.66 -300.31,179.6 -108.94,55.94 -229.65,129.55 -273.8,244.36 -8.84,23.56 -14.72,50.05 -14.72,76.55 -2.95,105.99 61.82,209.03 147.2,273.8 58.89,44.17 129.55,70.66 200.21,91.27 276.75,85.38 574.11,126.6 862.64,94.22 47.1,-5.89 91.26,-14.72 135.43,-32.38 138.37,-58.89 226.7,-203.15 270.87,-350.35 32.38,-105.99 47.1,-217.87 91.26,-315.02 14.72,-35.33 35.33,-67.72 55.94,-97.16 64.77,-88.33 161.93,-153.09 223.75,-244.36 44.17,-64.77 70.66,-144.27 82.44,-223.75 35.34,-206.12 -26.5,-397.49 -209.03,-512.31z"/>
     <path class="fil1 str1" d="M9696.23 11669.7c5.89,61.82 44.16,114.82 55.94,173.7 17.67,94.22 -41.22,188.42 -117.77,244.36 -61.82,44.16 -141.32,79.49 -167.81,150.15 -29.44,76.55 14.72,164.88 79.49,214.93 85.39,67.71 203.15,88.33 303.25,55.94 103.04,-32.38 185.49,-117.76 217.87,-220.81 17.67,-53.01 17.67,-111.88 35.33,-164.88 23.55,-73.61 70.66,-135.43 117.76,-200.21 97.15,-138.37 153.09,-376.85 -58.89,-432.79 -144.25,-35.31 -482.83,-58.87 -465.17,179.61z"/>
     <path class="fil1 str1" d="M12348.92 6485.04c-329.74,38.28 -671.27,100.1 -903.86,344.47 -535.83,562.32 -20.61,1828.31 356.25,2364.15 206.09,294.41 479.9,532.89 688.94,821.42 176.65,241.42 288.52,532.9 344.46,824.36 55.94,282.64 38.28,550.56 229.65,791.98 247.31,309.13 638.89,403.35 998.07,515.23 438.68,138.37 892.09,256.14 1357.26,235.53 294.41,-14.72 618.28,-170.76 627.1,-503.45 5.89,-288.53 -197.25,-494.62 -356.24,-709.55 -188.43,-253.19 -273.81,-509.34 -297.37,-824.36 -38.27,-509.34 -76.54,-865.59 -376.85,-1295.43 -206.09,-294.41 -303.25,-632.99 -303.25,-992.19 2.95,-300.31 97.16,-600.6 138.37,-897.96 70.66,-500.51 -53,-950.96 -632.99,-906.81 -627.11,44.19 -1248.33,159 -1869.54,232.61z"/>
     <path class="fil1 str1" d="M12369.53 6985.55c-468.13,191.37 -815.54,535.83 -685.99,1077.56 70.66,294.42 241.42,594.72 441.63,818.48 147.2,161.92 341.52,300.31 556.44,362.13 282.64,79.5 580,20.61 865.59,11.77 150.15,-2.95 300.31,20.61 450.45,-2.95 100.1,-14.72 197.26,-50.05 270.87,-117.76 226.7,-203.14 153.09,-529.95 114.82,-794.93 -32.38,-229.65 -20.61,-462.23 2.95,-688.93 20.61,-200.21 85.38,-409.24 35.33,-606.5 -61.83,-253.19 -315.02,-376.85 -556.44,-403.35 -512.3,-58.87 -1024.59,153.11 -1495.65,344.48z"/>
     <path class="fil1 str1" d="M14047.69 7274.07c-58.89,-176.65 -235.54,-262.03 -409.24,-279.69 -373.9,-38.28 -744.87,120.71 -1074.62,270.87 -147.2,67.71 -276.75,156.04 -365.07,270.86 -105.99,138.37 -150.15,312.09 -94.21,524.07 55.93,211.97 179.59,426.9 326.8,588.83 105.99,117.76 247.31,217.87 403.35,264.98 191.37,58.89 394.52,35.33 591.77,23.56 14.73,0 29.45,-2.95 41.22,-2.95 108.94,-5.89 220.81,5.88 326.8,-14.72 70.66,-14.73 138.37,-44.17 191.37,-94.22 153.1,-150.16 100.11,-385.68 67.72,-580 -26.5,-167.81 -20.61,-335.64 -8.84,-500.5 11.78,-156.06 50.06,-317.98 2.95,-471.09z"/>
     <path class="fil1 str1" d="M13662.01 7503.72c-50.05,-100.1 -153.09,-150.15 -262.03,-156.04 -229.65,-17.67 -459.29,88.33 -647.71,197.26 -85.38,50.05 -156.04,111.87 -200.21,185.48 -53,91.27 -70.66,197.26 -32.38,323.86 38.28,132.48 120.71,262.03 211.98,362.13 67.71,73.61 153.09,135.43 247.31,167.82 117.76,44.16 247.31,41.21 373.91,32.38 8.83,0 17.67,0 26.49,-2.95 70.66,-5.89 138.37,-8.84 203.14,-29.45 41.22,-14.72 79.5,-38.27 108.94,-73.6 79.5,-100.11 47.11,-241.43 23.56,-362.14 -20.61,-103.04 -23.56,-209.03 -20.61,-309.13 5.89,-117.75 20.61,-232.58 -32.39,-335.62z"/>
     <path class="fil1 str1" d="M12905.36 7921.79c-2.95,44.17 11.77,85.39 32.38,123.66 44.17,85.39 108.94,156.04 191.37,203.15 47.11,26.49 100.11,47.1 156.04,44.16 53,-5.88 108.94,-44.16 117.77,-97.15 14.72,-79.5 -50.06,-185.49 -55.94,-267.92 -5.89,-73.61 0,-147.2 -64.77,-197.26 -132.48,-97.16 -368.01,41.21 -376.85,191.36z"/>
     <path class="fil1 str1" d="M14306.78 9467.47c-279.69,14.72 -600.61,64.78 -859.69,173.7 -120.71,50.05 -232.58,129.55 -300.31,241.43 -120.71,200.2 -85.38,479.89 -64.77,703.64 20.61,244.36 76.55,494.62 197.26,709.55 173.7,306.2 500.5,465.18 818.47,580 229.65,82.43 471.06,138.37 715.43,153.09 235.54,11.78 588.84,50.05 724.27,-194.32 97.16,-176.65 2.95,-370.97 -103.04,-521.11 -161.93,-229.65 -291.47,-488.73 -353.3,-762.54 -32.38,-144.26 -47.1,-291.47 -41.21,-438.68 5.88,-141.31 20.6,-279.69 -61.83,-403.35 -135.44,-203.13 -394.52,-256.13 -671.28,-241.41z"/>
     <path class="fil1 str1" d="M13753.28 10194.68c-55.94,44.16 -117.76,85.38 -153.09,153.09 -61.83,120.71 -41.22,279.69 -23.56,412.19 17.67,135.43 53,270.86 123.66,388.62 100.1,164.88 285.59,253.2 462.24,312.09 132.48,44.16 267.91,67.71 403.35,67.71 132.48,0 323.85,5.88 400.4,-132.49 53,-94.21 8.83,-197.25 -44.17,-279.69 -79.49,-123.66 -138.37,-264.98 -170.76,-412.18 -14.72,-76.55 -23.56,-156.04 -17.67,-235.54 2.95,-76.54 2.95,-147.2 -32.38,-217.86 -82.44,-164.88 -229.65,-241.43 -406.3,-247.31 -185.47,-11.78 -385.68,67.72 -541.72,191.37z"/>
     <path class="fil1 str1" d="M14059.47 10751.12c-5.88,61.83 -11.77,126.6 11.78,182.54 26.49,61.82 88.33,105.99 156.04,111.87 67.71,5.89 135.43,-32.38 170.76,-88.33 29.44,-50.05 35.33,-108.94 35.33,-167.81 0,-323.85 -338.58,-368.01 -373.91,-38.27z"/>
     <path class="fil1 str1" d="M6148.52 16294.97c35.33,-179.59 64.77,-365.07 47.1,-547.62 -23.55,-253.19 -132.48,-506.39 -61.82,-750.76 73.61,-256.14 332.69,-421.01 594.72,-462.23 262.03,-41.22 529.95,20.6 786.09,85.38 641.83,164.87 1280.71,356.24 1943.14,409.23 447.52,35.33 900.92,8.84 1345.49,-44.16 179.6,-20.61 382.74,-41.22 518.17,79.49 132.49,117.77 141.32,329.75 73.61,497.57 -67.71,164.88 -191.37,300.31 -297.36,444.57 -120.71,164.87 -217.86,347.41 -288.52,538.78"/>
     <path class="fil1 str1" d="M6419.39 16312.63c53,-226.7 67.71,-459.29 41.21,-691.87 -20.61,-179.6 -61.82,-376.86 35.33,-527 67.71,-105.99 188.42,-164.88 312.08,-182.54 123.66,-17.67 250.26,0 370.97,23.56 544.67,103.04 1074.62,279.69 1616.34,409.24 541.72,126.59 1107,203.14 1651.67,97.15 82.43,-14.72 173.7,-35.33 247.31,5.89 105.99,58.88 120.71,211.98 73.61,323.85 -47.1,111.88 -138.37,197.26 -203.15,300.31 -73.6,114.83 -114.82,253.2 -114.82,388.63"/>
     <path class="fil1 str1" d="M6852.18 16294.97c2.95,-191.37 -41.22,-388.63 -2.95,-577.05 129.55,-635.94 1080.5,-241.42 1457.36,-123.66 409.24,126.6 833.2,203.15 1260.1,223.75 132.49,5.89 276.76,11.78 370.97,105.99 123.66,126.6 76.55,347.42 -29.44,488.74"/>
     <path class="fil1 str1" d="M7190.76 16406.85c8.83,-138.37 14.72,-276.75 23.55,-415.12 2.95,-29.45 2.95,-61.83 20.61,-85.39 23.56,-41.21 76.55,-55.93 120.71,-64.77 170.77,-32.38 347.42,-38.28 521.12,-17.67 126.59,14.72 253.19,47.1 376.85,79.5 211.98,53 423.96,105.99 632.99,158.99 58.89,14.72 117.76,29.44 164.88,70.66 91.26,82.43 67.71,256.14 -44.17,306.19"/>
     <path class="fil1 str1" d="M16585.55 1482.92c-76.54,91.27 -147.2,188.42 -223.75,279.69 -226.7,279.7 -441.63,571.18 -668.32,850.87 -111.87,138.37 -223.75,276.75 -300.31,435.73 -182.53,379.79 -150.15,824.36 -250.25,1230.66 -97.16,400.4 -323.86,780.2 -297.37,1192.38 32.39,453.4 385.68,839.08 809.64,1003.96 423.96,164.87 900.92,135.43 1339.59,20.6 388.63,-100.1 774.31,-273.8 1030.45,-582.94 256.15,-309.14 353.3,-774.31 147.21,-1121.72 -108.94,-185.49 -291.48,-317.97 -438.68,-476.96 -253.2,-273.81 -400.4,-638.89 -426.91,-1009.85 -14.72,-188.42 2.95,-376.85 53,-559.39 58.89,-211.98 173.7,-397.46 276.75,-588.83 153.1,-291.48 220.82,-644.78 -55.93,-883.25 -191.38,-167.82 -450.46,-176.65 -674.22,-64.77 -126.58,64.79 -226.68,164.88 -320.9,273.82z"/>
     <path class="fil1 str2" d="M15770.03 2899.07c-94.22,111.87 -188.42,229.64 -253.2,362.13 -153.09,315.02 -126.59,691.87 -203.14,1030.45 -70.66,317.97 -238.47,618.28 -211.98,942.14 29.44,356.24 303.25,662.43 632.99,797.86 329.74,135.43 700.71,117.76 1051.06,41.22 323.86,-73.61 665.38,-223.75 871.47,-488.73 194.32,-250.26 262.03,-612.39 100.11,-886.2 -88.33,-147.21 -229.65,-253.2 -347.42,-376.86 -197.25,-214.92 -315.02,-497.56 -341.52,-783.14 -11.77,-144.27 -2.95,-291.47 32.38,-432.79 41.22,-164.88 126.6,-309.14 200.21,-459.29 32.38,-67.71 61.82,-141.32 79.49,-214.93 38.28,-170.76 17.67,-341.53 -126.6,-474.01 -144.26,-132.48 -341.52,-144.27 -509.34,-70.66 -97.15,44.17 -176.65,108.94 -247.31,185.49 -58.88,61.82 -114.82,132.48 -176.64,197.25 -64.78,70.66 -129.55,141.32 -194.32,214.93 -120.72,129.55 -238.48,273.82 -356.24,415.14z"/>
     <path class="fil1 str3" d="M15843.63 3184.64c-79.5,88.33 -153.1,179.6 -206.1,288.53 -120.71,253.19 -105.99,562.33 -153.09,827.31 -44.16,232.58 -153.09,456.34 -129.55,691.87 26.5,259.08 223.76,485.78 459.29,591.77 235.54,105.99 503.46,103.05 765.49,58.89 262.03,-47.1 556.44,-170.76 712.48,-391.58 132.49,-191.37 173.7,-450.45 50.05,-650.66 -64.77,-108.93 -167.81,-185.48 -253.19,-279.69 -144.27,-153.09 -229.65,-353.29 -253.2,-556.44 -11.77,-103.04 -8.83,-209.03 8.84,-309.13 23.55,-117.76 76.54,-220.82 123.66,-329.74 20.61,-50.06 38.28,-103.04 47.1,-156.05 23.56,-120.71 5.89,-244.36 -91.27,-341.52 -100.1,-97.16 -229.65,-111.88 -344.46,-73.61 -67.71,20.61 -120.71,53 -173.7,94.22 -44.17,35.33 -85.38,73.61 -129.55,111.87 -50.05,41.22 -100.1,82.44 -153.09,132.49 -94.23,88.33 -185.5,188.43 -279.71,291.47z"/>
     <path class="fil1 str4" d="M15920.17 3470.23c-64.77,61.82 -120.71,132.48 -158.99,214.93 -91.27,191.37 -82.43,432.79 -105.99,627.1 -17.67,147.21 -67.71,291.47 -44.16,441.63 26.49,164.88 141.32,309.13 285.59,385.68 141.32,76.55 309.13,91.27 476.95,76.55 197.26,-17.68 450.46,-114.83 553.51,-297.37 73.61,-129.54 82.43,-288.52 2.95,-415.12 -44.17,-67.71 -105.99,-120.71 -161.93,-179.6 -88.33,-94.21 -144.27,-211.98 -167.81,-329.74 -11.78,-61.82 -17.67,-123.66 -11.78,-182.53 5.89,-70.66 26.5,-132.49 44.17,-200.21 8.83,-29.44 14.72,-61.83 17.67,-94.22 8.83,-73.61 -2.95,-147.2 -55.94,-209.03 -53,-61.82 -120.71,-79.49 -179.6,-79.49 -35.33,0 -64.77,0 -97.15,5.88 -26.5,5.89 -53,14.73 -82.43,26.5 -32.38,11.77 -67.71,26.49 -108.94,47.1 -70.68,41.23 -141.34,100.1 -206.12,161.94z"/>
     <path class="fil1 str5" d="M16285.26 4064.95c-14.73,-50.05 -26.5,-103.04 -35.33,-158.99 -11.78,-73.61 -41.22,-161.93 -123.66,-176.65 -44.17,-8.83 -91.27,5.89 -129.55,29.45 -161.93,111.87 -182.54,385.67 -167.82,565.27 14.73,203.15 111.88,435.73 338.58,465.18 135.43,17.67 350.35,-58.89 391.58,-200.21 29.44,-103.04 -47.1,-188.42 -114.83,-256.14 -79.48,-88.32 -126.59,-170.75 -158.97,-267.91z"/>
     <path class="fil1 str1" d="M21893.87 3950.13c-406.3,100.1 -794.93,250.25 -1201.22,356.24 -329.74,85.39 -662.43,150.16 -1001.01,194.32 -276.75,35.33 -568.22,44.17 -765.48,273.81 -250.26,294.41 -220.81,694.82 14.72,989.23 435.73,544.67 1366.09,609.45 2004.97,641.83 950.96,47.1 2234.62,-229.65 2470.14,-1313.09 94.22,-426.91 11.78,-1033.41 -462.23,-1204.17 -312.09,-111.87 -641.83,-32.38 -953.91,38.28 -35.32,5.88 -70.65,14.71 -105.98,23.55z"/>
     <path class="fil1 str1" d="M20901.68 4474.19c-270.86,70.66 -550.55,120.71 -830.25,156.04 -229.65,29.44 -471.06,38.28 -638.89,220.81 -206.09,226.7 -191.37,547.62 -8.83,786.1 108.93,141.32 262.03,235.53 432.79,306.19 379.79,153.09 847.92,185.49 1215.94,200.21 756.65,35.33 1769.44,-179.6 1981.42,-1027.52 88.33,-344.46 38.28,-836.14 -353.3,-974.51 -247.31,-88.33 -509.34,-26.5 -759.6,29.44 -29.44,5.89 -58.89,11.77 -85.38,20.61 -323.84,79.47 -635.93,197.25 -953.9,282.63z"/>
     <path class="fil1 str1" d="M21107.78 4642c-211.98,55.94 -435.73,91.27 -656.55,120.71 -185.48,23.56 -373.91,35.33 -509.34,170.77 -158.99,161.92 -164.87,403.35 -35.33,580 82.43,111.87 206.09,182.53 341.53,229.65 300.31,108.93 659.49,129.54 948.02,141.32 565.28,20.6 1304.25,-129.55 1495.63,-741.93 82.43,-264.98 64.77,-638.89 -241.43,-747.82 -182.53,-64.77 -376.85,-20.6 -565.28,20.61 -20.6,5.89 -44.16,8.84 -64.77,14.72 -244.36,61.82 -479.9,150.15 -712.48,211.97z"/>
     <path class="fil1 str1" d="M21313.87 4809.82c-153.09,41.21 -320.92,61.82 -485.78,82.43 -138.37,17.67 -276.76,29.44 -379.8,117.76 -111.87,97.16 -138.37,256.15 -58.88,376.86 53,82.43 150.15,126.59 247.31,153.09 217.86,61.82 468.12,76.55 683.04,82.43 370.97,8.84 844.96,-79.49 1006.9,-456.34 79.5,-182.53 91.27,-441.63 -132.48,-518.17 -117.76,-41.22 -244.36,-17.67 -370.97,11.77 -14.72,2.95 -29.44,5.89 -44.16,8.84 -158.98,44.17 -317.97,103.06 -465.18,141.33z"/>
     <path class="fil1 str1" d="M20957.63 5089.52c-61.82,35.33 -114.82,108.94 -82.43,173.7 26.5,55.94 94.22,70.66 156.04,79.49 138.37,17.67 276.76,26.5 418.07,23.56 176.65,-2.95 397.47,-23.56 521.12,-170.76 82.43,-97.16 117.76,-244.36 -23.56,-291.48 -120.71,-38.28 -306.2,41.22 -421.01,73.61 -179.6,47.1 -412.2,26.5 -568.23,111.88z"/>
     <path class="fil1 str1" d="M1761.73 11763.91c41.22,-32.38 82.43,-64.77 120.71,-100.1 335.64,-303.25 603.56,-691.87 1018.68,-892.08 983.35,-474.01 2720.4,103.04 3109.03,1174.72 232.59,635.94 -76.55,1283.65 -382.74,1831.27 -185.49,335.64 -379.8,697.76 -400.4,1089.34 -20.61,385.68 23.55,786.09 -144.27,1148.22 -312.09,685.99 -1130.56,965.68 -1807.71,1145.28 -1916.65,506.39 -4216.03,-256.14 -4669.43,-2367.1 -29.45,-129.55 -47.11,-262.03 -61.83,-394.52 -55.94,-582.94 -50.05,-1263.04 223.75,-1792.98 264.98,-512.29 818.48,-529.95 1321.93,-485.79 600.61,55.93 1177.66,23.54 1672.28,-356.26z"/>
     <path class="fil1 str1" d="M2100.31 11970.01c276.75,-244.36 494.61,-559.39 836.14,-721.32 806.7,-382.74 2202.22,91.27 2546.7,950.96 214.93,538.78 -23.56,1077.56 -285.59,1542.74 -158.99,282.64 -326.8,585.88 -356.25,912.69 -29.44,323.85 -11.77,656.54 -150.15,959.79 -267.92,577.05 -930.35,839.08 -1501.53,995.12 -421.01,114.83 -865.58,147.21 -1292.48,100.11 -438.68,-47.11 -856.75,-176.65 -1218.89,-382.75 -624.16,-353.29 -1083.45,-924.46 -1239.49,-1737.05 -20.61,-108.93 -35.33,-217.86 -44.16,-326.8 -38.28,-479.9 -35.33,-1036.34 185.48,-1475.02 211.98,-423.96 656.55,-447.51 1059.9,-421.01 479.91,32.38 950.98,-2.95 1360.21,-315.03 32.39,-26.49 67.72,-52.99 100.11,-82.43z"/>
     <path class="fil1 str1" d="M2315.23 12276.2c214.93,-188.42 388.63,-426.9 653.61,-547.62 627.1,-288.52 1684.06,79.5 1981.42,727.21 200.21,438.68 32.38,868.53 -185.48,1251.27 -129.55,229.65 -270.87,476.96 -312.08,738.98 -41.22,262.03 -44.17,529.94 -158.99,771.37 -223.76,465.17 -730.16,712.48 -1198.27,844.96 -335.64,94.22 -694.82,114.83 -1030.45,67.72 -344.47,-50.06 -668.32,-170.77 -933.3,-344.47 -462.24,-303.24 -768.42,-750.76 -865.59,-1392.58 -11.77,-85.39 -20.61,-173.7 -26.49,-259.09 -23.56,-376.85 -20.61,-812.58 147.2,-1157.05 161.93,-332.69 494.62,-365.07 800.82,-359.18 365.07,8.83 724.26,-32.38 1048.12,-273.81 26.48,-23.55 52.99,-47.1 79.48,-67.71z"/>
     <path class="fil1 str1" d="M2530.15 12582.39c153.09,-129.55 282.64,-294.41 471.06,-376.86 450.46,-197.26 1174.72,64.78 1416.15,503.46 188.42,341.52 85.38,662.43 -88.33,962.74 -103.05,176.65 -217.87,365.07 -267.92,562.33 -50.05,197.25 -76.55,400.4 -167.82,585.88 -179.59,356.25 -529.94,585.89 -892.08,694.83 -250.26,76.54 -521.11,85.38 -768.42,35.33 -253.2,-50.05 -479.9,-161.93 -650.66,-306.2 -297.36,-250.26 -453.4,-580 -488.73,-1051.06 -5.89,-64.77 -5.89,-126.6 -8.84,-194.32 -5.88,-273.8 -5.88,-588.83 108.94,-839.08 108.94,-241.42 332.69,-282.64 541.72,-294.41 250.26,-14.72 500.51,-58.89 738.98,-232.59 17.68,-20.61 38.29,-35.33 55.95,-50.05z"/>
     <path class="fil1 str1" d="M2745.08 12888.58c94.22,-73.6 173.7,-161.92 288.52,-206.09 273.81,-108.94 680.11,47.1 853.81,279.69 179.6,244.36 138.37,456.34 11.77,671.27 -73.61,123.66 -164.88,256.14 -223.75,388.63 -61.83,135.43 -108.94,273.8 -176.65,397.46 -135.43,247.31 -329.74,459.29 -588.84,544.67 -164.87,55.94 -350.35,53 -506.39,0 -158.99,-53 -291.47,-156.04 -368.02,-270.86 -135.43,-200.21 -135.43,-406.3 -114.82,-706.6 2.95,-41.22 8.83,-82.43 8.83,-126.6 8.84,-170.76 8.84,-362.13 67.71,-524.06 55.94,-150.16 167.82,-200.21 282.64,-232.59 132.49,-38.28 276.76,-82.43 429.85,-191.37 11.78,-5.89 23.57,-14.71 35.34,-23.55z"/>
     <path class="fil1 str1" d="M2771.57 13727.67c-55.93,161.92 -253.19,253.19 -288.52,423.95 -17.67,85.39 17.67,176.65 85.38,232.59 67.71,53 164.88,67.71 244.36,32.38 153.09,-64.77 191.37,-256.14 282.64,-394.51 153.09,-232.59 691.87,-547.62 256.14,-800.82 -111.87,-67.71 -273.8,-85.38 -391.57,-23.55 -220.81,114.83 -123.65,335.65 -188.43,529.96z"/>
     <path class="fil1 str1" d="M3277.98 6697.02c-97.16,270.87 -256.15,515.23 -403.35,765.49 -303.25,518.17 -559.4,1071.66 -650.66,1663.45 -47.11,294.41 -29.45,644.77 209.03,824.36 114.82,85.38 264.98,114.82 409.23,120.71 259.09,11.77 529.95,-41.22 730.16,-206.09 294.41,-241.43 368.02,-653.61 450.45,-1027.52 103.04,-474.01 247.31,-939.18 488.73,-1360.2 241.43,-418.08 582.95,-789.03 1012.8,-1012.8 394.51,-206.09 844.96,-276.75 1274.82,-397.46 429.85,-120.71 868.53,-306.2 1130.56,-665.38 153.09,-211.98 232.58,-512.29 94.21,-733.09 -67.71,-111.88 -179.6,-185.49 -288.52,-259.09 -429.85,-288.52 -871.48,-580 -1369.03,-727.2 -571.17,-167.82 -1201.22,-132.49 -1748.84,105.99 -459.29,197.25 -1089.34,638.88 -1230.66,1151.16 -58.88,214.93 11.78,471.06 20.61,688.94 11.78,359.18 -5.9,727.21 -129.54,1068.73z"/>
     <path class="fil1 str1" d="M4067.01 4615.51c-103.04,91.27 -200.21,191.37 -262.03,315.02 -126.6,247.31 -97.16,541.72 -47.11,815.53 29.45,173.7 67.71,347.42 108.94,518.18 41.22,167.81 123.66,368.02 297.36,388.63 103.04,11.77 200.21,-44.17 288.53,-97.16 309.13,-185.48 635.93,-347.41 971.57,-482.84 335.64,-132.49 683.04,-241.43 1036.34,-317.97 332.69,-73.61 777.26,-158.99 877.36,-541.72 67.71,-253.2 -29.44,-621.22 -214.92,-806.7 -394.52,-394.52 -1324.88,-426.91 -1828.32,-350.35 -450.47,70.65 -886.2,259.07 -1227.72,559.38z"/>
     <path class="fil1 str1" d="M5291.78 4356.41c-320.92,53 -630.05,185.49 -874.41,394.52 -73.61,64.77 -144.27,135.43 -191.37,217.86 -97.16,173.71 -79.5,376.86 -61.83,565.28 11.77,132.49 26.5,273.81 70.66,406.3 38.28,117.76 100.1,256.15 226.7,270.87 73.61,8.83 144.27,-29.45 209.03,-67.71 26.5,-14.72 53,-29.45 79.5,-44.17 203.14,-114.82 409.23,-220.81 624.16,-309.13 232.59,-94.22 479.9,-170.76 736.04,-229.65 235.54,-53 535.84,-120.71 632.99,-376.86 67.71,-185.48 35.33,-444.56 -117.76,-591.77 -291.49,-276.75 -953.92,-297.36 -1333.71,-235.54z"/>
     <path class="fil1 str1" d="M5291.78 4656.72c-188.42,35.33 -373.91,111.88 -521.11,229.65 -47.11,35.33 -88.33,76.55 -120.72,123.66 -67.71,97.16 -64.77,211.98 -73.6,315.02 -8.84,91.27 -11.78,203.15 29.44,294.42 32.38,70.66 76.55,144.26 156.04,150.15 47.1,2.95 91.27,-17.67 132.48,-38.28 17.68,-8.83 32.39,-17.67 50.06,-26.49 126.59,-67.71 253.19,-141.32 385.68,-200.21 126.59,-53 279.69,-100.1 435.73,-138.37 141.32,-35.33 306.19,-82.43 385.68,-211.98 73.61,-123.66 100.1,-267.92 -20.61,-376.86 -185.47,-164.87 -582.94,-167.82 -839.07,-120.71z"/>
     <path class="fil1 str1" d="M4982.63 5113.06c-44.16,50.05 -58.88,132.49 -11.77,179.6 41.22,41.22 108.94,38.28 161.93,14.72 52.99,-23.55 97.15,-61.82 147.2,-91.26 41.22,-20.61 173.71,-53.01 273.81,-97.16 100.1,-44.16 167.81,-97.15 76.54,-161.93 -73.6,-53 -209.03,-41.21 -341.52,-2.95 -129.54,41.22 -256.13,103.05 -306.19,158.98z"/>
     <path class="fil1 str1" d="M2656.75 8381.08c-114.83,270.87 -206.09,556.44 -223.75,850.87 -5.89,108.94 -2.95,223.75 55.93,315.02 76.55,120.71 226.71,173.7 368.02,182.53 350.35,20.61 703.65,-197.25 839.09,-518.17 67.71,-158.99 85.38,-329.74 114.82,-500.51 47.1,-276.75 123.66,-547.61 232.59,-809.63 100.1,-241.43 323.85,-880.3 -167.82,-839.09 -376.85,32.38 -715.43,435.74 -909.74,727.21 -120.71,185.47 -220.81,385.68 -309.14,591.77z"/>
     <path class="fil1 str1" d="M3272.08 7957.12c-153.09,294.42 -303.25,591.78 -406.3,909.74 -20.61,61.83 -38.28,126.6 -32.38,191.38 5.88,64.77 38.28,129.54 94.21,158.99 76.55,35.33 167.82,0 232.59,-53 144.27,-117.77 209.03,-303.25 247.31,-482.85 35.33,-179.6 50.05,-368.02 117.76,-538.78 47.11,-120.71 244.36,-344.47 70.66,-438.68 -170.75,-97.16 -264.96,138.38 -323.85,253.2z"/>
     <path class="fil1 str1" d="M-664.26 1506.48c300.31,453.4 1566.29,1586.89 2040.3,1851.87 450.46,253.2 939.19,488.72 1451.47,465.18 597.66,-26.5 1118.78,-397.47 1675.23,-612.38 453.4,-176.65 945.07,-250.26 1430.86,-217.87 344.47,23.56 685.99,97.16 1027.52,76.55 580,-35.33 1121.72,-359.19 1477.97,-815.54 356.24,-459.29 529.94,-1042.23 538.78,-1622.22"/>
     <path class="fil1 str1" d="M-172.58 1335.72c285.59,403.35 1377.87,1377.86 1816.55,1610.45 423.95,220.81 871.47,394.51 1348.42,365.07 518.17,-32.38 968.63,-338.58 1454.41,-521.11 394.51,-147.21 818.47,-211.98 1239.49,-185.49 297.36,17.67 591.78,79.5 889.14,61.83 500.5,-32.38 965.68,-309.14 1286.59,-691.88 338.58,-403.35 527,-921.52 556.45,-1451.47"/>
     <path class="fil1 str1" d="M316.15 1162c273.81,353.3 1189.43,1168.84 1592.78,1369.04 394.52,194.32 806.71,303.25 1242.44,264.98 435.73,-38.27 821.42,-282.63 1230.66,-429.84 332.69,-120.71 694.82,-170.76 1048.12,-153.09 250.26,14.72 500.5,61.82 750.76,44.16 423.96,-29.44 812.59,-259.08 1095.23,-568.22 320.92,-347.42 527,-800.82 574.11,-1277.77"/>
     <path class="fil1 str1" d="M804.88 991.25c259.09,300.31 1001.01,956.86 1371.98,1124.67 368.02,164.88 741.93,211.98 1136.45,167.82 353.29,-41.22 671.26,-223.76 1009.84,-338.58 273.8,-91.27 568.23,-132.49 856.75,-117.76 206.1,8.83 409.24,44.16 615.33,29.44 344.47,-23.56 659.5,-206.09 903.86,-441.63 303.24,-294.41 524.06,-680.1 588.83,-1107"/>
     <path class="fil1 str1" d="M1296.55 820.49c247.31,250.25 815.54,747.81 1148.22,880.3 341.53,135.43 677.15,120.71 1030.45,67.71 273.81,-41.22 524.06,-167.82 786.09,-247.31 214.93,-64.77 441.63,-91.27 665.39,-85.38 158.99,5.88 317.96,26.49 476.95,14.72 267.92,-20.61 512.29,-153.09 712.49,-317.97 291.47,-238.47 524.06,-559.39 606.49,-933.3"/>
     <path class="fil1 str1" d="M1785.29 646.78c235.52,200.2 630.05,538.78 927.41,638.88 315.02,105.99 612.38,35.33 927.41,-32.38 191.37,-41.21 376.86,-108.94 565.28,-156.04 153.09,-35.33 315.02,-53 474.01,-50.05 111.87,0 223.75,8.84 338.57,0 188.43,-14.72 365.08,-97.15 521.12,-194.32 282.64,-176.65 521.11,-435.73 624.16,-759.6"/>
     <path class="fil1 str1" d="M2276.96 476.01c220.81,150.16 441.62,326.81 700.71,394.52 288.52,76.55 547.61,-44.17 821.42,-129.55 379.79,-117.76 777.26,-35.33 1154.11,-164.87 282.64,-97.16 518.18,-315.02 638.89,-588.84"/>
     <path class="fil1 str1" d="M-128.41 3399.57c312.08,267.92 665.38,488.73 1039.28,653.61 306.2,135.43 632.99,235.53 903.86,435.73 930.35,685.99 827.31,2013.8 344.46,2917.66 -214.93,400.4 -459.29,789.03 -577.05,1227.71 -103.04,388.63 -94.21,794.93 -129.54,1195.33 -55.94,671.26 -264.98,1451.47 -1062.85,1460.29 -288.53,2.95 -577.05,-88.33 -812.59,-256.14"/>
     <path class="fil1 str1" d="M-181.41 3832.35c256.14,253.2 562.33,462.24 889.13,627.1 264.98,135.44 544.67,244.37 771.37,429.85 762.54,632.99 647.71,1772.38 247.31,2570.25 -170.76,338.57 -370.97,665.38 -462.24,1033.4 -82.43,323.85 -76.54,665.38 -105.99,1001.01 -50.05,588.83 -244.36,1260.1 -918.57,1310.15 -247.31,17.67 -497.57,-41.22 -706.6,-164.88"/>
     <path class="fil1 str1" d="M-234.4 4268.09c200.2,238.48 462.23,435.74 738.98,597.66 223.75,132.49 456.33,250.26 641.82,426.91 597.66,577.05 465.17,1528.02 147.21,2225.78 -126.6,276.76 -279.69,541.72 -347.42,839.09 -61.82,262.03 -58.88,535.83 -82.43,803.75 -44.16,509.34 -223.75,1071.67 -777.26,1157.05 -206.09,32.38 -418.07,5.88 -597.66,-73.61"/>
     <path class="fil1 str1" d="M-284.45 4703.83c144.26,223.75 362.13,409.23 585.88,571.16 182.54,132.49 368.02,253.2 509.34,423.96 432.79,518.17 282.64,1283.65 50.05,1881.32 -82.43,211.98 -188.42,415.12 -235.53,641.82 -41.22,200.21 -38.28,406.3 -55.94,609.45 -38.28,426.9 -203.15,883.24 -632.99,1006.9 -164.88,47.1 -335.64,53 -491.67,17.67"/>
     <path class="fil1 str1" d="M-337.46 5139.56c91.27,209.03 262.04,379.79 435.74,541.72 141.32,129.55 282.64,259.08 379.79,418.07 270.87,453.4 97.15,1036.34 -50.05,1533.91 -44.17,147.2 -97.16,291.47 -120.71,447.51 -20.61,135.44 -20.61,276.76 -32.38,415.13 -32.39,344.46 -179.6,697.76 -488.74,853.8 -123.66,61.82 -256.14,100.1 -385.68,108.94"/>
     <path class="fil1 str1" d="M-387.51 5575.3c61.83,353.3 426.91,585.89 532.9,927.41 120.71,385.68 -108.94,786.09 -147.21,1189.45 -14.72,156.04 0,315.02 -17.67,471.06 -41.21,379.79 -285.58,730.15 -624.16,900.91"/>
     <path class="fil1 str1" d="M17250.93 16451.01c50.06,-326.8 -8.83,-659.49 -103.04,-974.51 -103.04,-341.53 -244.36,-624.16 -132.48,-983.35 103.04,-326.8 323.86,-618.28 618.28,-797.87 615.33,-373.9 1330.76,-5.88 1987.31,-20.6 618.27,-14.73 1210.05,-315.02 1825.38,-394.52 715.43,-91.27 1265.99,294.41 1504.46,962.74 250.26,703.65 179.6,1625.18 736.04,2184.57 191.37,191.37 438.68,315.02 683.04,426.91"/>
     <path class="fil1 str1" d="M17645.45 16433.34c38.28,-288.52 -14.72,-577.05 -97.15,-853.8 -88.33,-300.31 -211.98,-547.62 -111.88,-859.69 94.22,-288.52 300.31,-532.9 562.33,-683.04 532.9,-303.25 1142.33,5.89 1707.61,0 544.67,-5.89 1065.78,-264.98 1607.51,-332.69 624.17,-79.5 1118.78,247.31 1333.7,827.31 220.81,597.66 170.76,1377.86 632.99,1869.53 164.88,176.65 370.97,303.25 577.05,415.13"/>
     <path class="fil1 str1" d="M18039.97 16418.62c26.49,-247.31 -20.61,-497.56 -88.34,-736.04 -73.6,-256.14 -176.64,-471.06 -88.33,-736.04 85.39,-250.26 276.76,-450.45 506.4,-568.23 450.45,-232.58 953.9,11.78 1427.91,17.67 471.06,5.89 921.53,-211.97 1392.59,-270.86 535.83,-67.71 971.58,197.26 1162.94,691.87 191.37,494.62 164.87,1133.51 527,1554.52 141.31,161.93 303.24,288.52 471.06,403.35"/>
     <path class="fil1 str1" d="M18434.49 16403.9c14.72,-206.09 -23.56,-415.12 -82.43,-618.28 -61.83,-211.98 -141.32,-394.51 -64.77,-612.38 73.6,-211.98 253.19,-365.07 450.45,-450.45 368.02,-161.93 768.42,29.44 1148.22,38.28 394.52,8.83 780.21,-161.93 1174.73,-209.03 444.56,-53 824.36,150.15 995.12,556.44 161.93,388.63 153.09,889.13 421.01,1236.55 114.82,147.2 238.47,276.75 365.07,391.57"/>
     <path class="fil1 str1" d="M18829.01 16386.24c2.95,-167.81 -29.45,-335.64 -73.61,-497.57 -47.1,-167.81 -105.99,-320.91 -44.17,-488.73 64.78,-173.7 229.65,-279.69 397.47,-335.64 282.64,-97.15 580,41.22 868.52,55.94 320.92,14.72 635.94,-108.94 956.86,-144.27 356.24,-41.21 677.15,103.04 824.36,421.01 132.48,285.59 138.37,650.66 315.02,921.53 88.33,135.43 170.76,262.03 262.03,379.79"/>
     <path class="fil1 str1" d="M19223.52 16371.52c-8.83,-126.6 -35.33,-253.2 -67.71,-379.79 -32.38,-123.66 -70.66,-244.36 -20.61,-365.08 58.89,-135.43 203.15,-197.25 341.53,-220.81 194.32,-32.38 391.58,55.94 588.83,76.55 247.31,23.55 491.67,-58.89 741.93,-82.44 264.98,-26.49 527,55.94 653.61,285.59 100.1,182.54 120.71,418.07 211.98,603.56 61.82,123.66 103.04,250.26 156.04,368.02"/>
     <path class="fil1 str1" d="M19615.1 16356.8c-20.61,-85.38 -41.22,-173.7 -61.83,-259.08 -17.67,-79.5 -35.33,-167.82 2.95,-241.43 50.05,-97.15 176.65,-123.66 285.59,-105.99 105.99,17.67 206.09,70.66 312.08,94.22 170.77,38.28 350.35,-5.89 524.06,-20.61 173.71,-14.72 373.91,11.78 482.85,150.16 64.77,79.49 88.33,185.48 105.99,288.52 20.61,117.76 38.28,235.54 50.05,356.25"/>
    </g>
   </g>
  </g>
  <g>
   <path class="fil2" d="M8714.7 753.05l3862.47 2806.25 3862.48 2806.25 248.73 180.72 -94.94 292.22 -1475.34 4540.61 -1475.33 4540.61 -95.11 292.69 -306.72 0 -4774.28 0 -4774.28 0 -306.72 0 -95.11 -292.69 -1475.33 -4540.61 -1475.34 -4540.61 -94.94 -292.22 248.73 -180.72 3862.48 -2806.25 3862.47 -2806.25 248.04 -180.21 248.04 180.21zm-248.04 342.3l3862.47 2806.25 3862.48 2806.25 -1475.34 4540.61 -1475.33 4540.61 -4774.28 0 -4774.28 0 -1475.33 -4540.61 -1475.34 -4540.61 3862.48 -2806.25 3862.47 -2806.25z"/>
  </g>
 </g>
</svg>
