<?xml version="1.0" encoding="UTF-8"?>
<!DOCTYPE svg PUBLIC "-//W3C//DTD SVG 1.1//EN" "http://www.w3.org/Graphics/SVG/1.1/DTD/svg11.dtd">
<!-- Creator: CorelDRAW -->
<svg xmlns="http://www.w3.org/2000/svg" xml:space="preserve" width="177.756mm" height="49.122mm" version="1.1" style="shape-rendering:geometricPrecision; text-rendering:geometricPrecision; image-rendering:optimizeQuality; fill-rule:evenodd; clip-rule:evenodd"
viewBox="0 0 17775.6 4912.2"
 xmlns:xlink="http://www.w3.org/1999/xlink"
 xmlns:xodm="http://www.corel.com/coreldraw/odm/2003">
 <defs>
  <style type="text/css">
   <![CDATA[
    .fil0 {fill:#DBF868;fill-rule:nonzero}
   ]]>
  </style>
 </defs>
 <g id="Camada_x0020_1">
  <metadata id="CorelCorpID_0Corel-Layer"/>
  <g id="_2478496118672">
   <path class="fil0" d="M454.01 4664.86l67.1 -31.01c6.39,23.05 18.1,40.67 35.12,52.74 16.9,12.18 38.62,18.22 65.05,18.22 25.11,0 44.9,-7 59.75,-20.88 14.72,-13.88 22.08,-32.46 22.08,-55.76 0,-30.42 -25.23,-57.57 -75.79,-81.34 -7.13,-3.5 -12.56,-6.16 -16.29,-7.72 -57.09,-27.89 -95.11,-52.99 -114.06,-75.56 -18.95,-22.57 -28.49,-50.09 -28.49,-82.56 0,-42.24 14.37,-76.39 42.97,-102.58 28.61,-26.19 66.26,-39.22 112.73,-39.22 38.14,0 70.12,7.35 95.83,22.08 25.71,14.73 43.44,35.85 53.34,63.36l-65.65 34.04c-10.38,-16.29 -21.73,-28.24 -34.15,-35.73 -12.44,-7.6 -26.69,-11.34 -42.73,-11.34 -22.57,0 -40.67,5.91 -53.96,17.74 -13.39,11.71 -20.03,27.51 -20.03,47.32 0,31.13 29.33,60.22 87.87,87.01 4.46,2.18 7.97,3.86 10.62,4.95 51.17,23.65 86.3,46.71 105.36,69.16 19.07,22.56 28.6,50.68 28.6,84.36 0,49 -15.44,87.98 -46.34,116.83 -30.9,28.84 -72.65,43.33 -125.28,43.33 -44.06,0 -80.14,-10.14 -108.38,-30.42 -28.12,-20.28 -46.59,-49.24 -55.27,-87.02zm414.09 -376.43c0,-12.92 4.82,-24.14 14.36,-33.68 9.53,-9.41 20.87,-14.12 34.15,-14.12 13.64,0 25.11,4.59 34.16,13.64 9.05,9.06 13.64,20.51 13.64,34.16 0,13.75 -4.59,25.22 -13.77,34.51 -9.28,9.3 -20.63,14.01 -34.03,14.01 -13.28,0 -24.62,-4.84 -34.15,-14.36 -9.54,-9.54 -14.36,-20.89 -14.36,-34.16zm10.14 480.11l0 -335.28 76.75 0 0 335.28 -76.75 0zm147.84 -60.83l63.73 -34.76c4.7,16.77 13.39,29.57 26.18,38.26 12.67,8.81 29.09,13.16 49.01,13.16 17.26,0 30.77,-3.99 40.54,-11.83 9.78,-7.97 14.61,-18.72 14.61,-32.47 0,-18.11 -17.38,-33.67 -52.26,-46.71 -11.7,-4.22 -20.88,-7.72 -27.16,-10.62 -35.84,-14.85 -60.94,-29.93 -75.19,-45.26 -14.24,-15.21 -21.36,-33.91 -21.36,-55.76 0,-29.93 11.71,-54.19 35.12,-72.89 23.54,-18.59 54.56,-27.88 93.18,-27.88 25.94,0 48.15,4.83 66.62,14.35 18.47,9.54 31.98,23.06 40.43,40.8l-54.43 37.54c-3.98,-10.63 -10.98,-19.08 -21,-25.35 -10.01,-6.27 -21.61,-9.41 -34.76,-9.41 -14.61,0 -26.31,3.5 -35.13,10.38 -8.81,6.99 -13.27,16.29 -13.27,27.88 0,17.38 19.79,33.31 59.26,47.67 12.56,4.47 22.21,8.2 28.97,10.98 30.89,12.31 52.98,26.07 66.38,41.52 13.28,15.45 19.91,34.76 19.91,57.81 0,33.56 -12.18,59.74 -36.45,78.69 -24.25,18.95 -57.69,28.49 -100.41,28.49 -32.71,0 -59.98,-6.16 -81.59,-18.35 -21.72,-12.31 -38.62,-31.02 -50.93,-56.24zm364.85 60.83l0 -267.94 -58.66 0 0 -67.34 58.66 0 0 -126.73 76.76 0 0 126.73 58.65 0 0 67.34 -58.65 0 0 267.94 -76.76 0zm524.41 -156.42l-267.93 0c1.93,31.38 11.22,55.88 28,73.51 16.64,17.62 38.98,26.42 66.85,26.42 24.74,0 45.39,-5.19 61.8,-15.57 16.54,-10.38 30.9,-27.15 43.21,-50.32l64.45 36.08c-18.83,33.79 -42.13,58.78 -70,75.32 -27.76,16.53 -60.47,24.74 -97.89,24.74 -53.82,0 -96.55,-16.42 -128.41,-49.12 -31.75,-32.84 -47.68,-76.52 -47.68,-131.19 0,-52.63 16.42,-95.72 49.37,-129.63 32.83,-33.8 75.07,-50.69 126.72,-50.69 53.96,0 96.07,15.45 126.25,46.35 30.17,30.77 45.26,74.1 45.26,129.62l0 14.48zm-79.66 -51.42c-3.01,-24.01 -12.19,-42.36 -27.52,-54.91 -15.32,-12.67 -36.33,-18.95 -62.88,-18.95 -25.23,0 -45.5,6.16 -60.82,18.35 -15.21,12.31 -25.95,30.77 -32.11,55.51l183.33 0zm236.19 207.84l-76.75 0 0 -335.28 72.17 0 0 55.03c15.33,-23.41 32.71,-40.55 52.14,-51.3 19.43,-10.74 42.36,-16.04 68.79,-16.04 26.19,0 47.91,5.43 65.06,16.41 17.25,10.98 30.29,27.76 39.22,50.21 17.74,-23.18 36.57,-40.07 56.48,-50.69 19.92,-10.63 42.61,-15.93 68.07,-15.93 22.09,0 41.4,4.1 57.94,12.18 16.53,8.21 29.32,20.04 38.5,35.61 4.34,7.24 7.48,16.05 9.41,26.19 2.05,10.14 3.01,24.62 3.01,43.45l0 26.91 0 203.25 -76.76 0 0 -172.11c0,-45.02 -4.82,-74.71 -14.36,-88.95 -9.53,-14.25 -26.55,-21.36 -51.05,-21.36 -30.17,0 -51.65,9.66 -64.45,28.85 -12.91,19.19 -19.31,52.85 -19.31,100.89l0 152.68 -77.49 0 0 -172.11c0,-41.52 -4.94,-70.24 -14.96,-86.29 -10.02,-16.05 -27.4,-24.02 -51.89,-24.02 -15.09,0 -28.85,3.38 -41.29,10.26 -12.54,6.88 -22.44,16.29 -29.8,28.24 -4.71,7.84 -7.97,17.38 -9.9,28.6 -1.81,11.34 -2.78,32.22 -2.78,62.64l0 152.68zm872.6 0l-76.75 0 0 -43.33c-13.64,19.19 -29.69,33.55 -47.92,42.96 -18.35,9.42 -39.23,14.13 -62.88,14.13 -47.31,0 -84.73,-16.18 -111.88,-48.64 -27.28,-32.35 -40.92,-76.76 -40.92,-133.13 0,-53.46 13.89,-96.67 41.76,-129.49 27.88,-32.96 64.21,-49.37 108.99,-49.37 27.39,0 50.81,5.67 70.24,17.14 19.43,11.34 33.67,27.75 42.61,49.12l0 -54.67 76.75 0 0 335.28zm-74.58 -168.73c0,-34.63 -8.09,-61.67 -24.26,-80.98 -16.18,-19.43 -38.74,-29.09 -67.71,-29.09 -29.09,0 -51.9,10.01 -68.43,29.93 -16.66,19.91 -24.99,47.67 -24.99,83.03 0,35.61 7.97,63.12 24.03,82.44 16.04,19.43 38.74,29.09 67.94,29.09 27.64,0 50.09,-10.5 67.35,-31.5 17.38,-21.01 26.07,-48.64 26.07,-82.92zm406.85 168.73l0 -517.77 84 0 0 517.77 -84 0zm198.55 0l0 -335.28 72.17 0 0 55.03c15.33,-23.17 33.31,-40.07 54.07,-50.69 20.76,-10.62 45.98,-15.93 75.79,-15.93 24.98,0 46.23,3.98 63.85,11.83 17.5,7.97 31.26,19.67 41.16,35.24 5.91,9.18 10.14,19.92 12.78,32.23 2.55,12.18 3.87,33.66 3.87,64.32l0 203.25 -77.49 0 0 -172.11c0,-44.05 -5.3,-73.38 -16.04,-87.87 -10.75,-14.47 -29.82,-21.72 -57.22,-21.72 -17.86,0 -33.91,3.26 -47.91,9.9 -14,6.63 -25.1,15.93 -33.07,27.88 -5.67,8.08 -9.65,18.35 -11.82,31.02 -2.3,12.55 -3.38,32.59 -3.38,60.22l0 152.68 -76.76 0zm443.78 0l0 -267.94 -58.66 0 0 -67.34 58.66 0 0 -126.73 76.76 0 0 126.73 58.66 0 0 67.34 -58.66 0 0 267.94 -76.76 0zm524.41 -156.42l-267.93 0c1.93,31.38 11.22,55.88 28,73.51 16.64,17.62 38.98,26.42 66.85,26.42 24.75,0 45.39,-5.19 61.8,-15.57 16.54,-10.38 30.9,-27.15 43.21,-50.32l64.45 36.08c-18.83,33.79 -42.13,58.78 -70,75.32 -27.76,16.53 -60.47,24.74 -97.89,24.74 -53.82,0 -96.55,-16.42 -128.41,-49.12 -31.75,-32.84 -47.68,-76.52 -47.68,-131.19 0,-52.63 16.42,-95.72 49.37,-129.63 32.83,-33.8 75.07,-50.69 126.72,-50.69 53.96,0 96.07,15.45 126.25,46.35 30.17,30.77 45.26,74.1 45.26,129.62l0 14.48zm-79.66 -51.42c-3.01,-24.01 -12.19,-42.36 -27.51,-54.91 -15.33,-12.67 -36.34,-18.95 -62.89,-18.95 -25.23,0 -45.49,6.16 -60.82,18.35 -15.21,12.31 -25.95,30.77 -32.11,55.51l183.33 0zm400.58 39.11c0,-34.63 -8.09,-61.67 -24.26,-80.98 -16.18,-19.43 -38.74,-29.09 -67.71,-29.09 -29.09,0 -51.9,10.01 -68.43,29.93 -16.66,19.91 -24.99,47.67 -24.99,83.03 0,35.61 7.97,63.12 24.03,82.44 16.04,19.43 38.74,29.09 67.94,29.09 27.64,0 50.09,-10.5 67.35,-31.5 17.38,-21.01 26.07,-48.64 26.07,-82.92zm74.58 147.97c0,65.53 -13.03,111.64 -39.23,138.44 -26.18,26.78 -70.35,40.18 -132.39,40.18 -46.22,0 -83.16,-9.78 -110.67,-29.33 -27.64,-19.43 -41.64,-45.37 -42.13,-77.85l82.44 -0.36c1.2,14.49 7.97,25.59 20.15,33.19 12.31,7.61 29.57,11.35 51.66,11.35 32.83,0 56.37,-7.24 70.72,-21.6 14.49,-14.37 21.73,-38.51 21.97,-72.17l0.73 -44.42c-13.64,19.19 -29.7,33.55 -47.92,42.96 -18.35,9.42 -39.23,14.13 -62.88,14.13 -47.31,0 -84.73,-16.18 -111.88,-48.64 -27.28,-32.35 -40.92,-76.76 -40.92,-133.13 0,-53.46 13.89,-96.67 41.76,-129.49 27.88,-32.96 64.21,-49.37 108.98,-49.37 27.4,0 50.82,5.67 70.25,17.14 19.43,11.34 33.67,27.75 42.61,49.12l0 -54.67 76.75 0 0 314.52zm182.49 -260.94c8.33,-22.21 19.19,-38.62 32.71,-49.24 13.64,-10.62 30.41,-15.93 50.57,-15.93 10.86,0 21.48,1.32 31.98,3.86 10.51,2.54 20.89,6.4 31.02,11.23l-27.63 65.29c-6.64,-4.71 -13.76,-8.2 -21.37,-10.38 -7.72,-2.3 -16.29,-3.38 -25.71,-3.38 -25.58,0 -43.8,10.14 -54.91,30.54 -11.1,20.39 -16.66,54.67 -16.66,102.7l0 147.01 -76.75 0 0 -336.01 76.75 0 0 54.31zm505.58 281.7l-76.76 0 0 -43.33c-13.64,19.19 -29.69,33.55 -47.91,42.96 -18.35,9.42 -39.23,14.13 -62.89,14.13 -47.31,0 -84.72,-16.18 -111.87,-48.64 -27.29,-32.35 -40.92,-76.76 -40.92,-133.13 0,-53.46 13.88,-96.67 41.76,-129.49 27.87,-32.96 64.21,-49.37 108.98,-49.37 27.4,0 50.81,5.67 70.25,17.14 19.43,11.34 33.67,27.75 42.6,49.12l0 -54.67 76.76 0 0 335.28zm-74.59 -168.73c0,-34.63 -8.08,-61.67 -24.25,-80.98 -16.18,-19.43 -38.75,-29.09 -67.71,-29.09 -29.09,0 -51.9,10.01 -68.43,29.93 -16.66,19.91 -25,47.67 -25,83.03 0,35.61 7.98,63.12 24.03,82.44 16.05,19.43 38.74,29.09 67.95,29.09 27.63,0 50.08,-10.5 67.34,-31.5 17.38,-21.01 26.07,-48.64 26.07,-82.92zm421.46 0c0,-34.63 -8.09,-61.67 -24.25,-80.98 -16.18,-19.43 -38.75,-29.09 -67.71,-29.09 -29.09,0 -51.9,10.01 -68.44,29.93 -16.65,19.91 -24.99,47.67 -24.99,83.03 0,35.61 7.97,63.12 24.03,82.44 16.04,19.43 38.74,29.09 67.94,29.09 27.77,0 50.33,-10.5 67.59,-31.39 17.14,-20.88 25.83,-48.51 25.83,-83.03zm-2.17 -379.45l76.76 0 0 548.18 -76.76 0 0 -43.33c-13.64,19.19 -29.69,33.55 -47.92,42.96 -18.34,9.42 -39.23,14.13 -62.88,14.13 -47.31,0 -84.73,-16.18 -111.87,-48.64 -27.29,-32.35 -40.93,-76.76 -40.93,-133.13 0,-53.46 13.89,-96.67 41.77,-129.49 27.87,-32.96 64.21,-49.37 108.98,-49.37 27.4,0 50.81,5.67 70.25,17.14 19.43,11.34 33.66,27.75 42.6,49.12l0 -267.57zm446.08 381.63c0,-31.15 -10.02,-57.58 -30.06,-79.18 -20.03,-21.61 -44.53,-32.35 -73.5,-32.35 -28.72,0 -53.22,10.74 -73.37,32.35 -20.17,21.6 -30.18,48.03 -30.18,79.18 0,31.13 10.01,57.57 30.18,79.16 20.15,21.61 44.65,32.35 73.37,32.35 28.73,0 53.23,-10.74 73.39,-32.35 20.15,-21.59 30.17,-48.03 30.17,-79.16zm-288.22 -0.73c0,-24.5 4.71,-47.68 14,-69.4 9.3,-21.84 22.7,-41.27 40.07,-58.17 17.26,-16.78 37.05,-29.58 59.5,-38.63 22.46,-8.92 45.87,-13.39 70.37,-13.39 25.23,0 49,4.47 71.33,13.39 22.2,9.05 42.24,22.21 59.98,39.6 17.62,17.26 31.02,36.68 40.31,58.41 9.17,21.6 13.76,44.41 13.76,68.19 0,24.74 -4.59,48.03 -13.64,69.64 -9.05,21.72 -22.33,40.91 -39.83,57.69 -18.34,17.62 -38.74,31.01 -61.19,40.07 -22.32,9.05 -45.98,13.64 -70.72,13.64 -24.26,0 -47.67,-4.59 -70,-13.64 -22.45,-9.06 -42.37,-22.21 -59.87,-39.35 -17.62,-17.5 -31.02,-37.05 -40.31,-58.77 -9.17,-21.61 -13.76,-44.79 -13.76,-69.28zm910.03 -1.45c0,-34.63 -8.09,-61.67 -24.26,-80.98 -16.18,-19.43 -38.74,-29.09 -67.71,-29.09 -29.09,0 -51.9,10.01 -68.43,29.93 -16.66,19.91 -24.99,47.67 -24.99,83.03 0,35.61 7.97,63.12 24.03,82.44 16.04,19.43 38.74,29.09 67.94,29.09 27.76,0 50.33,-10.5 67.58,-31.39 17.15,-20.88 25.84,-48.51 25.84,-83.03zm-2.17 -379.45l76.75 0 0 548.18 -76.75 0 0 -43.33c-13.64,19.19 -29.7,33.55 -47.92,42.96 -18.35,9.42 -39.23,14.13 -62.88,14.13 -47.31,0 -84.73,-16.18 -111.88,-48.64 -27.28,-32.35 -40.92,-76.76 -40.92,-133.13 0,-53.46 13.89,-96.67 41.76,-129.49 27.88,-32.96 64.21,-49.37 108.98,-49.37 27.4,0 50.82,5.67 70.25,17.14 19.43,11.34 33.67,27.75 42.61,49.12l0 -267.57zm505.46 391.76l-267.94 0c1.93,31.38 11.22,55.88 28,73.51 16.65,17.62 38.98,26.42 66.86,26.42 24.74,0 45.38,-5.19 61.79,-15.57 16.54,-10.38 30.91,-27.15 43.22,-50.32l64.44 36.08c-18.82,33.79 -42.12,58.78 -70,75.32 -27.76,16.53 -60.46,24.74 -97.88,24.74 -53.83,0 -96.55,-16.42 -128.41,-49.12 -31.75,-32.84 -47.68,-76.52 -47.68,-131.19 0,-52.63 16.42,-95.72 49.37,-129.63 32.82,-33.8 75.06,-50.69 126.72,-50.69 53.95,0 96.07,15.45 126.25,46.35 30.17,30.77 45.26,74.1 45.26,129.62l0 14.48zm-79.67 -51.42c-3.01,-24.01 -12.18,-42.36 -27.51,-54.91 -15.33,-12.67 -36.33,-18.95 -62.88,-18.95 -25.23,0 -45.5,6.16 -60.83,18.35 -15.2,12.31 -25.94,30.77 -32.11,55.51l183.33 0zm551.81 -238.24l0 446.08 -84 0 0 -446.08 -137.59 0 0 -71.69 358.46 0 0 71.69 -136.87 0zm444.75 289.66l-267.93 0c1.93,31.38 11.22,55.88 28,73.51 16.64,17.62 38.98,26.42 66.85,26.42 24.75,0 45.39,-5.19 61.8,-15.57 16.54,-10.38 30.9,-27.15 43.21,-50.32l64.45 36.08c-18.83,33.79 -42.13,58.78 -70,75.32 -27.76,16.53 -60.47,24.74 -97.89,24.74 -53.82,0 -96.55,-16.42 -128.41,-49.12 -31.75,-32.84 -47.68,-76.52 -47.68,-131.19 0,-52.63 16.42,-95.72 49.37,-129.63 32.83,-33.8 75.07,-50.69 126.72,-50.69 53.96,0 96.07,15.45 126.25,46.35 30.17,30.77 45.26,74.1 45.26,129.62l0 14.48zm-79.66 -51.42c-3.01,-24.01 -12.19,-42.36 -27.52,-54.91 -15.32,-12.67 -36.33,-18.95 -62.88,-18.95 -25.23,0 -45.5,6.16 -60.82,18.35 -15.21,12.31 -25.95,30.77 -32.11,55.51l183.33 0zm163.06 207.84l0 -548.18 76.76 0 0 548.18 -76.76 0zm509.2 -156.42l-267.94 0c1.93,31.38 11.22,55.88 28,73.51 16.65,17.62 38.98,26.42 66.86,26.42 24.74,0 45.38,-5.19 61.79,-15.57 16.54,-10.38 30.91,-27.15 43.22,-50.32l64.44 36.08c-18.82,33.79 -42.12,58.78 -70,75.32 -27.76,16.53 -60.46,24.74 -97.88,24.74 -53.83,0 -96.55,-16.42 -128.41,-49.12 -31.75,-32.84 -47.68,-76.52 -47.68,-131.19 0,-52.63 16.42,-95.72 49.37,-129.63 32.82,-33.8 75.06,-50.69 126.72,-50.69 53.95,0 96.07,15.45 126.25,46.35 30.17,30.77 45.26,74.1 45.26,129.62l0 14.48zm-79.67 -51.42c-3.01,-24.01 -12.18,-42.36 -27.51,-54.91 -15.33,-12.67 -36.33,-18.95 -62.88,-18.95 -25.23,0 -45.5,6.16 -60.83,18.35 -15.2,12.31 -25.94,30.77 -32.11,55.51l183.33 0zm236.2 207.84l-76.76 0 0 -335.28 72.17 0 0 55.03c15.33,-23.41 32.72,-40.55 52.14,-51.3 19.43,-10.74 42.37,-16.04 68.8,-16.04 26.19,0 47.91,5.43 65.05,16.41 17.26,10.98 30.3,27.76 39.22,50.21 17.75,-23.18 36.57,-40.07 56.49,-50.69 19.91,-10.63 42.6,-15.93 68.07,-15.93 22.08,0 41.4,4.1 57.93,12.18 16.53,8.21 29.33,20.04 38.5,35.61 4.34,7.24 7.49,16.05 9.42,26.19 2.04,10.14 3.01,24.62 3.01,43.45l0 26.91 0 203.25 -76.76 0 0 -172.11c0,-45.02 -4.83,-74.71 -14.36,-88.95 -9.53,-14.25 -26.55,-21.36 -51.05,-21.36 -30.17,0 -51.66,9.66 -64.45,28.85 -12.91,19.19 -19.32,52.85 -19.32,100.89l0 152.68 -77.48 0 0 -172.11c0,-41.52 -4.94,-70.24 -14.97,-86.29 -10.01,-16.05 -27.39,-24.02 -51.89,-24.02 -15.09,0 -28.85,3.38 -41.28,10.26 -12.55,6.88 -22.45,16.29 -29.81,28.24 -4.71,7.84 -7.97,17.38 -9.9,28.6 -1.8,11.34 -2.77,32.22 -2.77,62.64l0 152.68zm879.84 -156.42l-267.93 0c1.93,31.38 11.22,55.88 28,73.51 16.65,17.62 38.98,26.42 66.86,26.42 24.74,0 45.38,-5.19 61.79,-15.57 16.54,-10.38 30.9,-27.15 43.21,-50.32l64.45 36.08c-18.82,33.79 -42.12,58.78 -70,75.32 -27.76,16.53 -60.46,24.74 -97.89,24.74 -53.82,0 -96.54,-16.42 -128.41,-49.12 -31.74,-32.84 -47.67,-76.52 -47.67,-131.19 0,-52.63 16.42,-95.72 49.37,-129.63 32.82,-33.8 75.06,-50.69 126.71,-50.69 53.96,0 96.08,15.45 126.25,46.35 30.17,30.77 45.26,74.1 45.26,129.62l0 14.48zm-79.66 -51.42c-3.01,-24.01 -12.18,-42.36 -27.51,-54.91 -15.33,-12.67 -36.34,-18.95 -62.88,-18.95 -25.23,0 -45.5,6.16 -60.83,18.35 -15.2,12.31 -25.95,30.77 -32.11,55.51l183.33 0zm177.54 207.84l0 -267.94 -58.66 0 0 -67.34 58.66 0 0 -126.73 76.76 0 0 126.73 58.66 0 0 67.34 -58.66 0 0 267.94 -76.76 0zm278.2 -281.7c8.32,-22.21 19.19,-38.62 32.7,-49.24 13.65,-10.62 30.42,-15.93 50.57,-15.93 10.87,0 21.49,1.32 31.99,3.86 10.5,2.54 20.88,6.4 31.02,11.23l-27.64 65.29c-6.64,-4.71 -13.76,-8.2 -21.37,-10.38 -7.72,-2.3 -16.29,-3.38 -25.7,-3.38 -25.59,0 -43.81,10.14 -54.91,30.54 -11.11,20.39 -16.66,54.67 -16.66,102.7l0 147.01 -76.76 0 0 -336.01 76.76 0 0 54.31zm183.33 -198.41c0,-12.92 4.83,-24.14 14.36,-33.68 9.53,-9.41 20.87,-14.12 34.16,-14.12 13.64,0 25.1,4.59 34.15,13.64 9.05,9.06 13.64,20.51 13.64,34.16 0,13.75 -4.59,25.22 -13.76,34.51 -9.29,9.3 -20.63,14.01 -34.03,14.01 -13.29,0 -24.63,-4.84 -34.16,-14.36 -9.53,-9.54 -14.36,-20.89 -14.36,-34.16zm10.14 480.11l0 -335.28 76.76 0 0 335.28 -76.76 0zm501.95 0l-76.76 0 0 -43.33c-13.63,19.19 -29.69,33.55 -47.91,42.96 -18.35,9.42 -39.23,14.13 -62.88,14.13 -47.32,0 -84.73,-16.18 -111.88,-48.64 -27.28,-32.35 -40.92,-76.76 -40.92,-133.13 0,-53.46 13.88,-96.67 41.76,-129.49 27.88,-32.96 64.21,-49.37 108.98,-49.37 27.4,0 50.81,5.67 70.25,17.14 19.43,11.34 33.67,27.75 42.6,49.12l0 -54.67 76.76 0 0 335.28zm-74.59 -168.73c0,-34.63 -8.08,-61.67 -24.25,-80.98 -16.18,-19.43 -38.74,-29.09 -67.71,-29.09 -29.09,0 -51.9,10.01 -68.43,29.93 -16.66,19.91 -24.99,47.67 -24.99,83.03 0,35.61 7.97,63.12 24.02,82.44 16.05,19.43 38.75,29.09 67.95,29.09 27.64,0 50.09,-10.5 67.34,-31.5 17.39,-21.01 26.07,-48.64 26.07,-82.92zm721.87 12.31l-267.93 0c1.93,31.38 11.22,55.88 28,73.51 16.64,17.62 38.98,26.42 66.85,26.42 24.74,0 45.39,-5.19 61.8,-15.57 16.54,-10.38 30.9,-27.15 43.21,-50.32l64.45 36.08c-18.83,33.79 -42.13,58.78 -70,75.32 -27.76,16.53 -60.47,24.74 -97.89,24.74 -53.82,0 -96.55,-16.42 -128.41,-49.12 -31.75,-32.84 -47.68,-76.52 -47.68,-131.19 0,-52.63 16.42,-95.72 49.37,-129.63 32.83,-33.8 75.07,-50.69 126.72,-50.69 53.96,0 96.07,15.45 126.25,46.35 30.17,30.77 45.26,74.1 45.26,129.62l0 14.48zm-79.66 -51.42c-3.01,-24.01 -12.19,-42.36 -27.52,-54.91 -15.32,-12.67 -36.33,-18.95 -62.88,-18.95 -25.23,0 -45.5,6.16 -60.82,18.35 -15.21,12.31 -25.95,30.77 -32.11,55.51l183.33 0zm468.53 -89.06l15.33 0c44.53,0 74.1,-5.19 88.7,-15.57 14.61,-10.38 21.97,-28.73 21.97,-55.16 0,-28.48 -7.84,-48.52 -23.53,-60.23 -15.7,-11.7 -44.79,-17.49 -87.14,-17.49l-15.33 0 0 148.45zm-5.07 65.17l0 231.73 -78.93 0 0 -517.77 117.31 0c34.4,0 61.07,2.29 80.14,6.75 18.95,4.48 35.12,11.84 48.51,22.21 16.06,12.56 28.37,28.73 37.18,48.52 8.69,19.79 13.03,41.4 13.03,65.05 0,41.4 -10.01,73.87 -30.05,97.4 -20.03,23.42 -49.6,37.54 -88.7,42.25l178.14 235.59 -94.87 0 -172.35 -231.73 -9.41 0zm630.38 75.31l-267.94 0c1.93,31.38 11.22,55.88 28,73.51 16.65,17.62 38.99,26.42 66.86,26.42 24.74,0 45.39,-5.19 61.79,-15.57 16.55,-10.38 30.91,-27.15 43.22,-50.32l64.45 36.08c-18.83,33.79 -42.13,58.78 -70,75.32 -27.77,16.53 -60.47,24.74 -97.89,24.74 -53.82,0 -96.55,-16.42 -128.41,-49.12 -31.75,-32.84 -47.68,-76.52 -47.68,-131.19 0,-52.63 16.42,-95.72 49.37,-129.63 32.83,-33.8 75.07,-50.69 126.72,-50.69 53.95,0 96.07,15.45 126.25,46.35 30.17,30.77 45.26,74.1 45.26,129.62l0 14.48zm-79.66 -51.42c-3.01,-24.01 -12.19,-42.36 -27.52,-54.91 -15.33,-12.67 -36.33,-18.95 -62.88,-18.95 -25.23,0 -45.5,6.16 -60.83,18.35 -15.2,12.31 -25.94,30.77 -32.1,55.51l183.33 0zm400.57 39.11c0,-34.63 -8.08,-61.67 -24.25,-80.98 -16.18,-19.43 -38.74,-29.09 -67.71,-29.09 -29.09,0 -51.9,10.01 -68.43,29.93 -16.66,19.91 -24.99,47.67 -24.99,83.03 0,35.61 7.97,63.12 24.02,82.44 16.05,19.43 38.75,29.09 67.95,29.09 27.64,0 50.08,-10.5 67.34,-31.5 17.39,-21.01 26.07,-48.64 26.07,-82.92zm74.59 147.97c0,65.53 -13.03,111.64 -39.23,138.44 -26.18,26.78 -70.35,40.18 -132.39,40.18 -46.23,0 -83.16,-9.78 -110.68,-29.33 -27.63,-19.43 -41.63,-45.37 -42.12,-77.85l82.43 -0.36c1.21,14.49 7.97,25.59 20.16,33.19 12.31,7.61 29.57,11.35 51.66,11.35 32.83,0 56.36,-7.24 70.72,-21.6 14.49,-14.37 21.73,-38.51 21.97,-72.17l0.72 -44.42c-13.63,19.19 -29.69,33.55 -47.91,42.96 -18.35,9.42 -39.23,14.13 -62.88,14.13 -47.32,0 -84.73,-16.18 -111.88,-48.64 -27.28,-32.35 -40.92,-76.76 -40.92,-133.13 0,-53.46 13.88,-96.67 41.76,-129.49 27.88,-32.96 64.21,-49.37 108.98,-49.37 27.4,0 50.81,5.67 70.25,17.14 19.43,11.34 33.67,27.75 42.6,49.12l0 -54.67 76.76 0 0 314.52zm99.22 -459.35c0,-12.92 4.82,-24.14 14.36,-33.68 9.53,-9.41 20.87,-14.12 34.16,-14.12 13.63,0 25.1,4.59 34.15,13.64 9.05,9.06 13.64,20.51 13.64,34.16 0,13.75 -4.59,25.22 -13.76,34.51 -9.29,9.3 -20.64,14.01 -34.03,14.01 -13.29,0 -24.63,-4.84 -34.16,-14.36 -9.54,-9.54 -14.36,-20.89 -14.36,-34.16zm10.14 480.11l0 -335.28 76.75 0 0 335.28 -76.75 0zm147.84 -60.83l63.73 -34.76c4.7,16.77 13.4,29.57 26.18,38.26 12.67,8.81 29.09,13.16 49.01,13.16 17.26,0 30.77,-3.99 40.55,-11.83 9.77,-7.97 14.6,-18.72 14.6,-32.47 0,-18.11 -17.38,-33.67 -52.26,-46.71 -11.7,-4.22 -20.88,-7.72 -27.16,-10.62 -35.84,-14.85 -60.94,-29.93 -75.19,-45.26 -14.24,-15.21 -21.36,-33.91 -21.36,-55.76 0,-29.93 11.71,-54.19 35.12,-72.89 23.54,-18.59 54.56,-27.88 93.18,-27.88 25.95,0 48.15,4.83 66.62,14.35 18.47,9.54 31.98,23.06 40.43,40.8l-54.43 37.54c-3.98,-10.63 -10.98,-19.08 -21,-25.35 -10.01,-6.27 -21.61,-9.41 -34.75,-9.41 -14.62,0 -26.32,3.5 -35.13,10.38 -8.82,6.99 -13.28,16.29 -13.28,27.88 0,17.38 19.79,33.31 59.26,47.67 12.56,4.47 22.21,8.2 28.97,10.98 30.89,12.31 52.98,26.07 66.38,41.52 13.28,15.45 19.91,34.76 19.91,57.81 0,33.56 -12.18,59.74 -36.45,78.69 -24.25,18.95 -57.69,28.49 -100.41,28.49 -32.71,0 -59.98,-6.16 -81.59,-18.35 -21.72,-12.31 -38.62,-31.02 -50.93,-56.24zm364.85 60.83l0 -267.94 -58.66 0 0 -67.34 58.66 0 0 -126.73 76.76 0 0 126.73 58.66 0 0 67.34 -58.66 0 0 267.94 -76.76 0zm278.2 -281.7c8.32,-22.21 19.19,-38.62 32.7,-49.24 13.65,-10.62 30.42,-15.93 50.57,-15.93 10.87,0 21.49,1.32 31.99,3.86 10.5,2.54 20.88,6.4 31.02,11.23l-27.64 65.29c-6.64,-4.71 -13.76,-8.2 -21.37,-10.38 -7.72,-2.3 -16.29,-3.38 -25.7,-3.38 -25.59,0 -43.81,10.14 -54.91,30.54 -11.11,20.39 -16.66,54.67 -16.66,102.7l0 147.01 -76.76 0 0 -336.01 76.76 0 0 54.31zm453.43 115.15c0,-31.15 -10.01,-57.58 -30.05,-79.18 -20.03,-21.61 -44.53,-32.35 -73.5,-32.35 -28.73,0 -53.22,10.74 -73.37,32.35 -20.17,21.6 -30.18,48.03 -30.18,79.18 0,31.13 10.01,57.57 30.18,79.16 20.15,21.61 44.64,32.35 73.37,32.35 28.73,0 53.23,-10.74 73.38,-32.35 20.16,-21.59 30.17,-48.03 30.17,-79.16zm-288.21 -0.73c0,-24.5 4.71,-47.68 14,-69.4 9.3,-21.84 22.7,-41.27 40.07,-58.17 17.26,-16.78 37.05,-29.58 59.5,-38.63 22.46,-8.92 45.87,-13.39 70.36,-13.39 25.23,0 49.01,4.47 71.33,13.39 22.21,9.05 42.25,22.21 59.99,39.6 17.62,17.26 31.02,36.68 40.31,58.41 9.17,21.6 13.76,44.41 13.76,68.19 0,24.74 -4.59,48.03 -13.64,69.64 -9.05,21.72 -22.33,40.91 -39.83,57.69 -18.34,17.62 -38.74,31.01 -61.19,40.07 -22.32,9.05 -45.99,13.64 -70.73,13.64 -24.25,0 -47.66,-4.59 -70,-13.64 -22.45,-9.06 -42.36,-22.21 -59.86,-39.35 -17.62,-17.5 -31.02,-37.05 -40.31,-58.77 -9.17,-21.61 -13.76,-44.79 -13.76,-69.28zm839.9 187.56l-231.13 -538.05 87.51 0 115.98 275.9c6.88,15.93 12.56,30.77 17.02,44.3 4.46,13.63 7.97,26.54 10.62,38.74 3.02,-12.92 6.88,-26.31 11.59,-40.31 4.7,-13.89 10.25,-28.13 16.66,-42.73l115.62 -275.9 87.01 0 -230.88 538.05z"/>
   <path class="fil0" d="M15582.64 4612.12l-267.94 0c1.93,31.38 11.22,55.88 28,73.51 16.65,17.62 38.98,26.42 66.86,26.42 24.74,0 45.38,-5.19 61.79,-15.57 16.54,-10.38 30.91,-27.15 43.21,-50.32l64.45 36.08c-18.82,33.79 -42.12,58.78 -70,75.32 -27.76,16.53 -60.46,24.74 -97.88,24.74 -53.83,0 -96.55,-16.42 -128.41,-49.12 -31.75,-32.84 -47.68,-76.52 -47.68,-131.19 0,-52.63 16.42,-95.72 49.37,-129.63 32.82,-33.8 75.06,-50.69 126.72,-50.69 53.95,0 96.07,15.45 126.25,46.35 30.17,30.77 45.26,74.1 45.26,129.62l0 14.48zm-79.67 -51.42c-3.01,-24.01 -12.18,-42.36 -27.51,-54.91 -15.33,-12.67 -36.33,-18.95 -62.88,-18.95 -25.23,0 -45.5,6.16 -60.83,18.35 -15.2,12.31 -25.94,30.77 -32.11,55.51l183.33 0zm152.93 -272.27c0,-12.92 4.82,-24.14 14.36,-33.68 9.53,-9.41 20.87,-14.12 34.15,-14.12 13.64,0 25.11,4.59 34.16,13.64 9.05,9.06 13.64,20.51 13.64,34.16 0,13.75 -4.59,25.22 -13.77,34.51 -9.29,9.3 -20.63,14.01 -34.03,14.01 -13.28,0 -24.62,-4.84 -34.15,-14.36 -9.54,-9.54 -14.36,-20.89 -14.36,-34.16zm10.13 480.11l0 -335.28 76.76 0 0 335.28 -76.76 0zm436.78 -239.7c-11.83,-12.91 -25.47,-22.81 -41.15,-29.57 -15.69,-6.88 -32.59,-10.26 -50.81,-10.26 -31.26,0 -56.36,10.14 -75.31,30.42 -18.83,20.28 -28.24,47.06 -28.24,80.62 0,34.88 9.52,62.28 28.47,82.19 18.96,19.92 45.15,29.81 78.69,29.81 18.59,0 35.25,-3.5 49.85,-10.38 14.61,-6.99 27.4,-17.5 38.5,-31.62l0 88.35c-14.11,7.97 -29.33,13.88 -45.5,17.86 -16.05,3.98 -33.31,6.04 -51.41,6.04 -52.63,0 -95.47,-16.78 -128.53,-50.21 -33.2,-33.43 -49.74,-76.88 -49.74,-130.1 0,-53.96 17.15,-97.53 51.42,-130.59 34.4,-33.19 79.17,-49.73 134.7,-49.73 17.37,0 33.42,1.69 48.03,5.19 14.6,3.38 28.36,8.69 41.03,15.81l0 86.17zm152.92 -95.58l0 189c0,32.47 6.76,55.88 20.16,70 13.4,14.12 35.12,21.24 65.29,21.24 30.17,0 51.9,-7.12 65.3,-21.24 13.39,-14.12 20.15,-37.53 20.15,-70l0 -189 76.76 0 0 165.95c0,64.08 -12.8,110.67 -38.5,139.64 -25.71,28.96 -66.75,43.45 -122.98,43.45 -57.21,0 -98.73,-14.37 -124.44,-43.09 -25.71,-28.73 -38.5,-75.43 -38.5,-140l0 -165.95 76.76 0zm354.72 335.28l0 -548.18 76.76 0 0 548.18 -76.76 0zm501.95 0l-76.75 0 0 -43.33c-13.64,19.19 -29.7,33.55 -47.92,42.96 -18.35,9.42 -39.23,14.13 -62.88,14.13 -47.32,0 -84.73,-16.18 -111.88,-48.64 -27.28,-32.35 -40.92,-76.76 -40.92,-133.13 0,-53.46 13.89,-96.67 41.76,-129.49 27.88,-32.96 64.21,-49.37 108.98,-49.37 27.4,0 50.82,5.67 70.25,17.14 19.43,11.34 33.67,27.75 42.61,49.12l0 -54.67 76.75 0 0 335.28zm-74.58 -168.73c0,-34.63 -8.09,-61.67 -24.26,-80.98 -16.18,-19.43 -38.74,-29.09 -67.71,-29.09 -29.09,0 -51.9,10.01 -68.43,29.93 -16.66,19.91 -24.99,47.67 -24.99,83.03 0,35.61 7.97,63.12 24.02,82.44 16.05,19.43 38.75,29.09 67.95,29.09 27.64,0 50.09,-10.5 67.35,-31.5 17.38,-21.01 26.07,-48.64 26.07,-82.92zm257.07 -112.97c8.33,-22.21 19.19,-38.62 32.71,-49.24 13.64,-10.62 30.41,-15.93 50.57,-15.93 10.86,0 21.48,1.32 31.98,3.86 10.51,2.54 20.88,6.4 31.02,11.23l-27.63 65.29c-6.64,-4.71 -13.76,-8.2 -21.37,-10.38 -7.72,-2.3 -16.29,-3.38 -25.71,-3.38 -25.58,0 -43.8,10.14 -54.91,30.54 -11.1,20.39 -16.66,54.67 -16.66,102.7l0 147.01 -76.75 0 0 -336.01 76.75 0 0 54.31z"/>
  </g>
  <path class="fil0" d="M1425.1 3073.2l447.89 -207.02c42.69,153.86 120.83,271.47 234.41,352.02 112.77,81.37 257.77,121.64 434.18,121.64 167.56,0 299.67,-46.72 398.75,-139.35 98.28,-92.64 147.41,-216.7 147.41,-372.17 0,-203 -168.35,-384.25 -505.88,-542.93 -47.52,-23.37 -83.78,-41.09 -108.75,-51.56 -381.01,-186.08 -634.77,-353.64 -761.24,-504.26 -126.47,-150.64 -190.1,-334.31 -190.1,-551 0,-281.94 95.86,-509.9 286.78,-684.71 190.91,-174.8 442.23,-261.8 752.37,-261.8 254.55,0 468.01,49.14 639.6,147.42 171.58,98.27 289.99,239.24 356.05,422.9l-438.22 227.17c-69.27,-108.76 -145,-188.51 -227.96,-238.45 -82.97,-50.74 -178.03,-75.71 -285.17,-75.71 -150.63,0 -271.46,39.47 -360.08,118.41 -89.41,78.13 -133.71,183.67 -133.71,315.78 0,207.82 195.74,401.96 586.43,580.79 29.81,14.5 53.16,25.77 70.89,33.03 341.55,157.88 575.96,311.74 703.24,461.57 127.27,150.64 190.91,338.33 190.91,563.08 0,327.05 -103.1,587.23 -309.32,779.76 -206.22,192.52 -484.95,289.18 -836.16,289.18 -294.03,0 -534.88,-67.66 -723.38,-202.98 -187.69,-135.34 -310.94,-328.67 -368.94,-580.81zm2860.49 691.97l0 -3455.78 560.66 0 0 3455.78 -560.66 0zm2485.09 -2977.29l0 2977.29 -560.66 0 0 -2977.29 -918.32 0 0 -478.49 2392.47 0 0 478.49 -913.49 0zm1903.5 995.65l102.3 0c297.25,0 494.61,-34.63 592.08,-103.92 97.47,-69.27 146.61,-191.71 146.61,-368.12 0,-190.12 -52.36,-323.83 -157.08,-401.97 -104.72,-78.14 -298.86,-116.8 -581.61,-116.8l-102.3 0 0 990.81zm-33.83 434.99l0 1546.65 -526.83 0 0 -3455.78 782.99 0c229.58,0 407.6,15.31 534.88,45.11 126.48,29.8 234.42,78.94 323.83,148.22 107.13,83.78 189.3,191.72 248.11,323.83 58,132.11 86.99,276.3 86.99,434.19 0,276.3 -66.85,492.98 -200.58,650.07 -133.71,156.27 -331.07,250.53 -592.07,281.94l1188.98 1572.42 -633.16 0 -1150.31 -1546.65 -62.83 0zm2179.79 1546.65l0 -3455.78 1928.47 0 0 478.49 -1367.81 0 0 865.16 1367.81 0 0 492.99 -1367.81 0 0 1116.48 1367.81 0 0 502.66 -1928.47 0zm3670.06 135.33l-1542.62 -3591.11 584.02 0 774.12 1841.47c45.92,106.34 83.78,205.42 113.59,295.63 29.81,91.03 53.16,177.23 70.89,258.58 20.13,-86.19 45.91,-175.6 77.33,-269.04 31.41,-92.64 68.47,-187.7 111.16,-285.17l771.71 -1841.47 580.8 0 -1541 3591.11z"/>
 </g>
</svg>
